<svg width="16" height="16" viewBox="0 0 562 673" fill="none" xmlns="http://www.w3.org/2000/svg">
<path d="M0.734619 224.575C0.734619 162.661 50.9263 112.469 112.841 112.469H449.159C511.074 112.469 561.265 162.661 561.265 224.575V560.894C561.265 622.808 511.074 673 449.159 673H112.841C50.9263 673 0.734619 622.808 0.734619 560.894V224.575Z" fill="white"/>
<path fill-rule="evenodd" clip-rule="evenodd" d="M449.159 140.496H112.841C66.4049 140.496 28.7612 178.139 28.7612 224.575V560.894C28.7612 607.33 66.4049 644.973 112.841 644.973H449.159C495.595 644.973 533.239 607.33 533.239 560.894V224.575C533.239 178.139 495.595 140.496 449.159 140.496ZM112.841 112.469C50.9263 112.469 0.734619 162.661 0.734619 224.575V560.894C0.734619 622.808 50.9263 673 112.841 673H449.159C511.074 673 561.265 622.808 561.265 560.894V224.575C561.265 162.661 511.074 112.469 449.159 112.469H112.841Z" fill="black"/>
<path d="M263.483 446.081C263.483 500.168 219.637 544.014 165.55 544.014C111.462 544.014 67.6161 500.168 67.6161 446.081C67.6161 391.993 111.462 348.147 165.55 348.147C219.637 348.147 263.483 391.993 263.483 446.081Z" fill="black"/>
<path d="M494.384 446.081C494.384 500.168 450.538 544.014 396.45 544.014C342.363 544.014 298.517 500.168 298.517 446.081C298.517 391.993 342.363 348.147 396.45 348.147C450.538 348.147 494.384 391.993 494.384 446.081Z" fill="black"/>
<path d="M218.896 420.602C218.896 435.993 206.419 448.469 191.028 448.469C175.638 448.469 163.161 435.993 163.161 420.602C163.161 405.211 175.638 392.735 191.028 392.735C206.419 392.735 218.896 405.211 218.896 420.602Z" fill="white"/>
<path d="M398.839 420.602C398.839 435.993 386.362 448.469 370.972 448.469C355.581 448.469 343.104 435.993 343.104 420.602C343.104 405.211 355.581 392.735 370.972 392.735C386.362 392.735 398.839 405.211 398.839 420.602Z" fill="white"/>
<path d="M113.796 56.0531C113.796 25.0958 138.749 0 169.531 0C200.312 0 225.265 25.0958 225.265 56.0531V140.133H113.796V56.0531Z" fill="black"/>
<path d="M336.735 56.0531C336.735 25.0958 362.044 0 393.265 0C424.487 0 449.796 25.0958 449.796 56.0531V140.133H336.735V56.0531Z" fill="black"/>
</svg>
