<svg width="170" height="57" viewBox="0 0 170 57" fill="none" xmlns="http://www.w3.org/2000/svg">
<path d="M55.7486 50.3474C50.0546 54.3685 44.1302 55.8762 36.1858 55.8762C31.2969 55.8762 25.9367 53.9009 18.1222 49.3384C16.3159 48.2558 12.4119 48.5974 11.5938 49.3384C11.1193 48.3396 10.1609 45.03 12.0066 43.3674C11.4993 43.3352 9.22821 42.1952 8.74687 40.0106C9.79403 40.0267 12.0062 39.2953 12.4774 36.2408C12.2831 34.7871 11.2618 30.0405 12.0066 27.7376C10.0062 27.3468 7.412 25.0948 6.58736 23.0843C5.54244 23.5724 4.41557 23.9687 3.20019 24.2548C1.92396 24.5551 0.893158 24.2548 0.893158 22.0799C0.893158 19.905 2.61116 16.3285 2.36573 12.8004C2.36573 11.4471 2.84677 8.48928 7.12704 7.09735C9.23773 6.41097 11.3496 5.86328 13.7604 3.73663C15.1839 0.0150666 20.9201 -2.83644 29.3629 13.7461C34.5224 11.9555 43.4375 10.5162 50.9115 13.3415C52.2204 10.0841 55.9771 3.2985 60.5323 2.21589C62.2503 1.80756 65.1324 3.30818 66.7031 5.55073C67.6298 6.87378 70.2316 7.96727 73.2946 8.54723C77.1233 9.2722 77.6632 13.187 77.6632 14.1053C77.6632 17.2468 75.7979 19.8566 77.6632 23.1431C78.349 24.3514 77.5159 26.2459 74.9635 25.1247C74.0231 24.7116 72.9093 24.1049 71.7238 23.3281C70.2316 25.068 68.3674 27.3468 65.1415 27.7376C65.5669 30.0447 66.7798 36.334 66.3829 38.6785C66.0521 40.6322 66.7798 43.8008 69.1612 44.5823C66.3829 48.4898 62.4138 46.1453 62.4138 46.1453C64.3983 47.7083 63.9317 50.3888 63.6045 50.7916C62.7701 49.3898 58.5955 48.3368 55.7486 50.3474Z" fill="white"/>
<path d="M16.3844 0.15745C16.7402 0.0426541 17.2594 -0.0311687 17.8394 0.0129187C18.4422 0.0549213 19.1122 0.225184 19.7662 0.482645C21.3904 1.16519 22.052 1.7992 22.6109 2.23069C22.7651 2.3581 22.9166 2.48952 23.0553 2.61253C23.4912 2.99757 24.0131 3.51879 24.5074 4.06858C25.0928 4.71603 25.6533 5.41559 26.0641 5.93382C27.0577 7.35824 27.9333 8.83815 28.7516 10.3518C29.1538 11.0977 29.4733 11.9258 29.5875 12.5373C29.5886 12.5428 29.5884 12.5485 29.5894 12.5539C29.6033 12.5452 29.6171 12.5368 29.6314 12.5295C29.8855 12.4022 30.145 12.2767 30.4049 12.1584C30.4177 12.1494 30.4309 12.1407 30.4439 12.1321C30.5421 12.0677 30.6202 11.9738 30.6998 11.8801C30.718 11.8587 30.7369 11.8377 30.7555 11.8166C30.8984 11.6552 31.2475 11.6091 31.4391 11.5862C31.4426 11.5857 31.4463 11.5847 31.4498 11.5842C31.4954 11.5786 31.5379 11.5698 31.5875 11.5588C31.7078 11.5323 31.8603 11.4976 32.2086 11.4895C32.305 11.4634 32.3985 11.4404 32.4937 11.4182C33.5258 11.1776 34.5882 11.0725 35.6471 11.0285C35.66 11.026 35.6738 11.0234 35.6871 11.0207C35.9439 10.9696 36.2707 10.9084 36.4781 10.9241C36.7434 10.9437 36.9272 10.9723 37.0768 10.9983C37.9159 10.9946 38.7503 11.0081 39.5816 11.0002C39.8425 10.9977 40.1028 10.9933 40.3629 10.9856C40.603 10.9785 40.8429 10.9703 41.0826 10.9612C41.2219 10.9346 41.3557 10.9038 41.4791 10.8762C41.652 10.8375 41.807 10.8046 41.9352 10.7951C42.2452 10.7723 42.5934 10.8261 42.8521 10.8694C42.8943 10.8764 42.9346 10.8829 42.9713 10.8889C43.1776 10.8825 43.3848 10.8771 43.5924 10.8733C43.6055 10.8838 43.619 10.8943 43.6324 10.9055C43.7998 11.0458 44.0137 11.0591 44.3531 11.0871C44.501 11.0994 44.6716 11.1149 44.8717 11.1457C45.0006 11.1657 45.0616 11.2241 45.1109 11.2717C45.1254 11.2857 45.1389 11.2988 45.1529 11.3098C45.201 11.3474 45.2593 11.3205 45.3287 11.2883C45.4186 11.2466 45.5277 11.1965 45.6529 11.2707C46.0505 11.508 46.2513 11.4173 46.4078 11.3479C46.4534 11.3277 46.4952 11.3092 46.5357 11.302C46.6677 11.2788 46.8381 11.3537 46.9605 11.4377C47.0577 11.504 47.2773 11.4965 47.4498 11.4699C47.515 11.4598 47.5974 11.4764 47.6939 11.4963C47.794 11.5169 47.9104 11.5413 48.0396 11.5442C48.3661 11.5517 48.5398 11.5635 48.6793 11.5725C48.7188 11.5751 48.7557 11.5778 48.7926 11.5803C48.9098 11.5881 49.0538 11.607 49.1988 11.6282C49.3723 11.6534 49.5485 11.6812 49.6861 11.6916C49.9404 11.7916 50.1905 11.9023 50.4391 12.0158C50.4755 11.7916 50.5423 11.559 50.6363 11.3323C50.9275 10.6302 51.2436 9.93833 51.5855 9.25999C51.6008 9.22308 51.6165 9.18545 51.6324 9.14866C51.7521 8.87314 51.8334 8.60442 51.9205 8.33128C51.9402 8.26908 51.9603 8.20627 51.981 8.14378C52.1366 7.66638 52.6996 6.90206 53.0279 6.49534C53.0338 6.48792 53.0397 6.48029 53.0455 6.47288C53.1226 6.37616 53.1928 6.28245 53.276 6.17307C53.4765 5.91366 53.7415 5.5549 54.4039 4.8928C54.5795 4.68474 54.7589 4.48142 54.9469 4.2805C56.3088 2.84407 58.002 1.46946 60.2389 0.980692C61.6198 0.727643 62.6582 1.13021 63.5924 1.55589C63.6293 1.57137 63.6668 1.58722 63.7047 1.60374C64.4373 1.91542 65.2562 2.43601 65.6998 2.84788C66.2661 3.36682 66.5909 3.77624 66.8443 4.11936C67.0764 4.39808 67.2938 4.69116 67.4928 4.99827C68.2184 6.08601 70.0715 6.88626 71.7291 7.37327C72.2899 7.53657 72.8611 7.67276 73.4391 7.78343C73.5242 7.79969 73.6083 7.81719 73.691 7.83616C74.3811 7.99324 75.0708 8.27119 75.6822 8.67796C76.0499 8.89589 76.3795 9.14318 76.6607 9.39866C77.0571 9.75853 77.3578 10.1315 77.566 10.4592C78.0765 11.2504 78.3586 12.2643 78.4586 13.0168C78.476 13.1403 78.4903 13.2606 78.5006 13.3674C78.5378 13.6002 78.5679 13.8341 78.5758 14.1057C78.586 14.475 78.5733 14.8408 78.5445 15.1994C78.5307 15.237 78.5165 15.2747 78.5016 15.3127C78.3157 15.7871 78.2138 16.3743 78.0279 17.2473C77.9489 17.6266 77.8546 18.0577 77.7603 18.55C77.7006 18.8667 77.6302 19.0199 77.5728 19.1477C77.5562 19.185 77.541 19.2202 77.5279 19.2561C77.4832 19.3796 77.5056 19.5177 77.5377 19.675C77.5799 19.8797 77.6358 20.1135 77.5982 20.4231C77.4966 21.4261 77.8238 21.8276 78.0201 22.0862C78.0819 22.1642 78.1396 22.2328 78.1891 22.3059C78.2665 22.4211 78.3393 22.5619 78.4146 22.717C78.5617 22.9988 78.6374 23.3161 78.65 23.5862C78.6886 23.9813 78.6898 24.8315 78.2799 25.4358C78.1404 25.6593 77.8655 25.9276 77.4879 26.1047C77.1002 26.2911 76.634 26.3659 76.1861 26.3645C75.3525 26.3466 74.9075 26.1597 74.5602 26.0432C74.4523 26.0044 74.354 25.9676 74.2633 25.9328C74.1626 25.8942 74.0691 25.8574 73.9771 25.8205C73.6856 25.7039 73.3323 25.5428 72.982 25.3713C72.5615 25.166 72.1435 24.9444 71.8228 24.7815C71.7436 24.7292 71.666 24.6744 71.5875 24.6213C71.5857 24.6248 71.5844 24.6285 71.5826 24.6321C71.2563 25.2764 70.6742 26.0885 69.858 26.7864C68.9388 27.5864 67.8056 28.2445 66.5807 28.6252C66.6863 29.0058 66.7986 29.3741 66.9098 29.7434C66.9489 29.8746 66.9858 29.9982 67.024 30.1291C67.3163 31.1102 67.5783 33.0667 67.6803 34.1614C67.6823 34.1812 67.6841 34.2011 67.6861 34.2209C67.7115 34.4814 67.7379 34.7277 67.7662 35.0159C67.7985 35.7421 68.036 36.5306 67.7496 38.8274C67.7456 38.8541 67.7413 38.8808 67.7369 38.9075C67.6766 39.2789 67.6694 39.7086 67.7086 40.1301C67.8345 41.6047 68.5726 42.9932 69.5826 43.2971L71.3102 43.8205L70.2633 45.3664C69.2124 47.1124 67.0648 48.0881 64.9615 48.093C65.1387 48.9325 65.1217 49.8134 64.9127 50.6467C64.8858 50.7528 64.8554 50.8587 64.8092 50.9846C64.752 51.1204 64.7298 51.2399 64.5123 51.5285L63.5025 52.8303L62.6002 51.3899C62.5541 51.2662 61.9508 50.8677 61.3893 50.7034C60.8132 50.5133 60.2161 50.4269 59.7535 50.3889C58.4993 50.2935 57.6586 50.516 57.0269 50.761C56.7789 50.8714 56.5413 51.0019 56.317 51.1526C52.5977 53.7124 48.2631 55.4013 43.8355 56.0891C42.3468 56.3309 40.8451 56.4808 39.3502 56.5666C38.2949 56.6272 37.2394 56.6553 36.1861 56.6594C35.8543 56.6607 35.5215 56.6536 35.1891 56.6379C34.3649 56.6204 33.5817 56.557 32.8609 56.4651C31.848 56.3357 30.9588 56.1528 30.2369 55.9631C28.4937 55.5107 26.623 54.7295 25.2769 54.095C25.0543 53.9907 24.8496 53.8926 24.6578 53.8C23.5742 53.3208 22.5151 52.8118 21.4654 52.2795C21.4005 52.2345 21.3348 52.1888 21.2682 52.1418C20.4464 51.5605 19.3806 50.9827 17.7242 50.0198C17.7088 50.0106 17.7009 50.0058 17.693 50.0012C17.1562 49.689 16.2692 49.4861 15.2193 49.4377C14.5397 49.4104 14.1835 49.3944 13.8932 49.3772C13.8088 49.3728 13.7258 49.37 13.6461 49.3703C13.3695 49.3724 13.0848 49.4517 12.7789 49.5696C12.5353 49.6605 12.1652 49.8475 12.1139 49.9123L11.3707 50.6164L10.8941 49.6701C10.7836 49.4418 10.6977 49.2001 10.6295 48.9377C10.0413 46.3996 10.243 45.1691 10.4879 44.216C10.5393 44.0436 10.5999 43.881 10.6725 43.7248C10.4121 43.5589 10.1788 43.3792 9.98007 43.2014C9.45891 42.7649 8.44468 41.7643 8.05039 40.6858C7.99443 40.5457 7.94129 40.3819 7.89706 40.1975L7.64121 39.1496L8.76035 39.1409C8.92667 39.1376 9.16998 39.1062 9.42539 39.0266C9.83947 38.9001 10.2985 38.6419 10.648 38.2268C11.2408 37.4965 11.3786 36.7931 11.4576 36.2502C11.4298 36.0983 11.4016 35.9464 11.3736 35.8049C11.3318 35.594 11.2915 35.3938 11.2516 35.1946C11.1248 34.5624 10.9782 33.7654 10.856 32.9455C10.7082 31.9646 10.6027 30.9474 10.565 30.1457C10.5708 29.6108 10.5853 29.0678 10.6705 28.4973C9.80097 28.1453 9.05179 27.6506 8.35605 27.0969C7.49749 26.4048 6.85603 25.5188 6.57675 24.7649C6.46913 24.4771 6.41472 24.2255 6.40097 24.0198C6.07808 24.1575 5.75147 24.2865 5.42148 24.4055C4.75323 24.6466 4.07529 24.8486 3.37949 25.0149C2.82255 25.1361 2.12873 25.2701 1.35703 24.8908C0.257977 24.2924 0.136 23.2301 0.0396428 22.5764C0.0203458 22.4052 0.00895854 22.2427 0.00253345 22.0803C-0.019117 21.2602 0.102214 20.6177 0.205658 20.0832C0.533359 18.5357 1.04117 16.9475 1.26816 15.7502C1.30722 15.5553 1.34074 15.372 1.36874 15.2024C1.46614 14.4102 1.49951 13.6244 1.43222 12.8655L1.43027 12.8C1.42744 12.6044 1.43259 12.4095 1.44687 12.2141C1.46351 12.1351 1.4823 12.0603 1.50253 11.9807C1.76711 11.0308 2.06131 9.74151 3.4039 8.3635C3.98684 7.77829 4.77022 7.22218 5.75742 6.78733C6.30737 6.54751 6.64138 6.48115 6.90976 6.43089C6.9503 6.42399 6.98945 6.41742 7.02695 6.41136C7.10663 6.39849 7.18186 6.38647 7.25644 6.37229C7.51183 6.32359 7.75972 6.2088 8.04746 6.07249C8.42084 5.89455 8.86 5.68439 9.46445 5.50608C11.3901 4.91422 12.024 4.21424 12.4947 3.75999C12.6327 3.61978 12.7542 3.4909 12.8824 3.36643C12.9274 3.32289 12.9743 3.279 13.023 3.23362C13.2542 2.68763 13.6318 2.12859 14.0201 1.74241C14.428 1.2909 15.4023 0.429951 16.3844 0.15745ZM20.0084 2.85569C18.9107 2.12433 17.7021 1.73119 16.7154 2.04319C16.6149 2.07357 16.5124 2.11181 16.4156 2.1555C15.6369 2.57219 15.1175 3.45499 14.8912 4.09788C14.8835 4.11882 14.8761 4.13986 14.8687 4.16038L14.5455 4.6262C14.0031 5.11951 13.5451 5.4242 13.1451 5.6721C12.8575 5.84951 12.598 5.99723 12.3414 6.1555C12.2025 6.24102 12.0143 6.35598 11.7809 6.48753C10.8427 7.05022 9.09626 7.71362 7.6207 8.10179C7.57017 8.11595 7.51889 8.12947 7.46738 8.14378C6.89474 8.29994 6.27449 8.51004 5.72128 8.79124C4.86206 9.21258 4.22931 9.83384 4.01035 10.2073C3.60666 10.8475 3.29537 11.6685 3.21933 12.4533C3.20691 12.5713 3.19952 12.6886 3.19589 12.8L3.19394 12.7424C3.22735 13.5057 3.17832 14.1431 3.18222 14.5334C3.18518 15.0879 3.10502 15.5545 2.95468 16.2239C2.84934 16.6881 2.70519 17.2503 2.51035 18.0002C2.28437 18.8651 2.09031 19.452 1.94003 19.9514C1.73461 20.6454 1.57 21.1889 1.58456 21.9211C1.58655 21.9758 1.58931 22.0292 1.59335 22.0803C1.62054 22.4711 1.68462 22.8485 1.78964 23.1106C1.9011 23.3825 1.99926 23.4625 2.11191 23.5246C2.2245 23.5891 2.48799 23.6129 2.81503 23.551C2.88232 23.5389 2.95236 23.5243 3.02402 23.5071C3.46671 23.4008 3.90121 23.2806 4.31601 23.1682C4.71429 23.0606 5.05662 22.9864 5.35507 22.9153C5.44844 22.8929 5.53699 22.8705 5.62363 22.8469C5.93498 22.7183 6.23456 22.5831 6.53574 22.4358C6.58099 22.4053 6.62844 22.3732 6.67734 22.3391C6.92281 22.1674 7.21994 21.9506 7.59238 21.7014C8.18193 21.3055 8.70997 20.9796 9.25156 20.6047C9.67264 20.3119 10.1004 19.9881 10.5465 19.5657C10.8504 19.2779 11.177 18.9285 11.485 18.5705C11.9449 18.0383 12.3628 17.4856 12.6725 17.1145C12.7885 16.9758 12.9062 16.8701 13.0221 16.7639L13.024 16.7619C13.0318 16.7548 13.0397 16.7476 13.0475 16.7405C13.7301 15.7765 14.3349 14.7552 14.8717 13.6985C14.9134 13.6044 14.9558 13.5097 14.9967 13.4153C15.1976 12.9522 15.377 12.4971 15.4654 12.1877C15.5623 11.8533 15.8901 11.0517 16.1891 10.1887C16.3856 9.62576 16.5739 9.03307 16.7057 8.54612C16.7829 8.26168 16.9001 8.0032 17.0162 7.73948C17.1261 7.4884 17.234 7.23596 17.3121 6.94065C17.3511 6.79308 17.3843 6.63186 17.4176 6.46116C17.4472 6.30979 17.4782 6.14661 17.5143 5.98069C17.5319 5.89919 17.5704 5.7624 17.6227 5.58714C17.6243 5.51063 17.6268 5.43415 17.6285 5.35765L17.6891 5.36448C17.7138 5.28194 17.7408 5.1939 17.7682 5.10179L19.8814 5.35765C19.8807 5.37396 19.8793 5.39087 19.8785 5.40745C19.8752 5.47871 19.8722 5.55241 19.8687 5.62815L19.9557 5.6389C19.9226 5.76195 19.8876 5.88543 19.8531 6.00999C19.8483 6.12424 19.8428 6.24142 19.8385 6.36057C19.8404 6.45009 19.8415 6.53962 19.8434 6.62913C20.2528 7.0141 20.6431 7.42434 21.0045 7.86448C21.1556 8.0115 21.2887 8.13217 21.4098 8.2219C21.4971 8.28698 21.5805 8.33607 21.6646 8.38792C21.7783 8.45758 21.8978 8.53556 22.0318 8.66233C22.136 8.76056 22.2343 8.89526 22.2789 8.99925C22.2995 9.04743 22.309 9.08837 22.317 9.12522C22.3261 9.16733 22.3341 9.20491 22.356 9.24339C22.3718 9.27075 22.3973 9.29721 22.4273 9.32835C22.4754 9.37842 22.5378 9.44445 22.5992 9.56077C22.8299 9.99713 23.0517 10.516 23.2262 11.0403C23.422 11.6227 23.5579 12.2099 23.649 12.6819C23.7542 13.2099 23.8065 13.9844 23.7496 14.758C23.7123 15.2974 23.6256 15.8362 23.5191 16.3039C23.4429 16.6388 23.3593 16.9884 23.231 17.3557L22.9605 18.0012L22.359 18.1711C22.2192 18.2193 22.0855 18.2594 21.9527 18.2951C21.372 18.4508 20.8058 18.5197 20.2984 18.4729C20.1962 18.4633 20.0701 18.4189 19.9146 18.3557C19.8043 18.3108 19.6784 18.2558 19.5357 18.1936C19.2865 18.148 19.0259 18.0755 18.7672 17.9729C18.7273 18.0309 18.6909 18.0941 18.6627 18.177C18.6126 18.3246 18.5885 18.5063 18.566 18.7043C18.5345 18.9821 18.5068 19.289 18.4107 19.5735C18.4042 19.593 18.3964 19.6142 18.3893 19.636C18.3213 19.8415 18.2274 20.147 18.1217 20.4211C18.1042 20.5804 18.0975 20.732 18.1021 20.8313C18.1017 20.8335 18.1024 20.8359 18.1021 20.8381L18.7935 21.5188L17.9527 22.2805C17.3998 22.7686 17.0742 23.0399 16.7857 23.466C16.5655 23.7865 16.383 24.161 16.232 24.5715L16.0172 25.1682L15.442 25.2492C13.9571 25.4273 12.5817 25.1911 11.274 24.5959C10.3854 24.1881 9.6871 23.4859 9.38144 22.8703C9.31616 22.7408 9.26817 22.6189 9.23203 22.5071C9.16687 22.5494 9.1025 22.5935 9.03671 22.635C8.45147 23.0064 7.844 23.3429 7.22031 23.6457C7.35842 23.7472 7.51414 23.875 7.68808 24.0217C8.19178 24.4512 8.84405 25.0146 9.56503 25.551C10.3741 26.1548 11.3164 26.6421 12.19 26.7961L13.2691 27.0334L12.9195 28.0324C12.7366 28.6602 12.7138 29.4932 12.7477 30.3049C12.832 32.1922 13.2068 34.0623 13.5338 36.0998L13.5309 36.4035C13.454 36.9123 13.3256 37.4264 13.1236 37.927C12.6418 39.1895 11.5858 40.3057 10.2301 40.7981C10.492 41.1445 10.8251 41.4518 11.1744 41.6955C11.3836 41.8419 11.5988 41.9667 11.7955 42.0608C11.8929 42.1074 11.9884 42.1476 12.065 42.1741C12.0827 42.1819 12.1083 42.1858 12.1295 42.1907L14.899 42.4114L12.7975 44.2453C12.7776 44.2646 12.7588 44.284 12.7408 44.303C12.4072 44.6604 12.2467 45.0303 12.1373 45.3987C12.0653 45.6521 12.0266 45.9022 12.026 46.1623C12.0258 46.3023 12.0337 46.4967 12.0602 46.7346C12.0906 47.0248 12.1606 47.4109 12.2672 47.8147C12.2995 47.8061 12.3322 47.7985 12.3648 47.7893C12.8146 47.6849 13.2436 47.6299 13.6666 47.5998C14.5425 47.5396 15.5486 47.5918 16.5162 47.7951C17.2526 47.9515 17.9735 48.1951 18.5758 48.5813L18.567 48.5764C18.9724 48.836 19.3069 49.0385 19.5533 49.1682C20.4657 49.6483 21.485 50.2449 22.3951 50.7512C23.2625 51.2351 24.0327 51.6381 24.4928 51.8127C25.048 52.0238 25.4872 52.2511 26.1588 52.5784C26.6244 52.8038 27.1933 53.0747 27.9918 53.3909C28.9141 53.7541 29.5663 54.0021 30.1246 54.2024C30.9122 54.4805 31.5164 54.6731 32.4391 54.803C33.4653 54.9463 34.5308 55.0289 35.3687 55.0852C35.6207 55.103 35.8977 55.1122 36.1861 55.1116C36.3417 55.1112 36.5001 55.1097 36.6598 55.1076C37.2806 55.0999 37.9337 55.0809 38.5289 55.0784C39.0194 55.0763 39.4289 55.0996 39.7887 55.1174C39.9019 55.1229 40.0103 55.1279 40.1148 55.1311C40.5026 55.101 40.8939 55.0647 41.2828 55.0227C41.345 55.0084 41.4103 54.9931 41.4781 54.9768C41.818 54.8949 42.2356 54.7902 42.7545 54.6877C43.5736 54.525 44.2956 54.4213 45.0543 54.2854C45.6436 54.179 46.2569 54.0526 46.941 53.8469C47.4073 53.7067 47.9315 53.5203 48.442 53.3196C49.2013 53.0227 49.9317 52.6896 50.4478 52.4778C50.6415 52.3986 50.8175 52.3511 50.9918 52.302L50.9937 52.301C51.0054 52.2977 51.0172 52.2946 51.0289 52.2912C52.25 51.6873 53.4253 50.9857 54.5455 50.2092C54.6393 50.1376 54.7352 50.0635 54.8277 49.9914C54.974 49.8776 55.1186 49.7628 55.2564 49.6506C55.6023 49.3744 55.9448 49.1592 56.1969 49.0022C56.5932 48.7412 57.7198 48.2833 58.9547 48.1877C59.7597 48.1129 60.5972 48.166 61.2779 48.2805C61.6769 48.3468 62.043 48.4843 62.4098 48.6575C62.5473 48.7231 62.685 48.7933 62.8258 48.8694C62.8189 48.7944 62.8099 48.7186 62.7975 48.6428C62.6974 48.2071 62.5149 47.82 62.2594 47.4934C62.0943 47.4115 61.9331 47.3222 61.7779 47.2229L61.8678 47.091C61.828 47.0577 61.7886 47.0237 61.7467 46.9924L62.9615 45.217C62.9804 45.2263 63.0414 45.2544 63.1041 45.2834L63.1881 45.1623C63.2746 45.2314 63.3576 45.3035 63.4381 45.3772C63.5142 45.3879 63.5853 45.3923 63.65 45.3909C63.7402 45.3877 63.8239 45.3732 63.9049 45.3557C64.0175 45.3324 64.1301 45.3047 64.2721 45.2903C64.384 45.2794 64.5075 45.2873 64.5855 45.3127C64.6221 45.3248 64.6501 45.3412 64.6754 45.3557C64.7035 45.3722 64.7294 45.386 64.7623 45.3889C64.7861 45.3909 64.812 45.3841 64.8434 45.3752C64.8927 45.3608 64.9566 45.3419 65.0504 45.343C65.3968 45.3477 65.7733 45.307 66.1197 45.1965C66.4163 45.1045 66.6932 44.957 66.9234 44.7932C66.7892 44.6595 66.6667 44.5252 66.5592 44.3938C66.1799 43.9358 65.8575 43.4332 65.6109 42.9299C65.3143 42.3257 65.1244 41.7184 65.0553 41.1926C65.0414 41.0862 65.0553 40.9489 65.0787 40.7795C65.0954 40.6596 65.1173 40.5222 65.1383 40.3684C65.0827 39.7525 65.089 39.1289 65.1998 38.4778C65.2036 38.4563 65.2069 38.4332 65.2105 38.4094C65.2076 38.3947 65.204 38.3784 65.2008 38.3625C65.1273 38.0023 64.9834 37.4579 65.0328 36.6233C65.0452 36.4101 65.0802 36.2731 65.1119 36.1477C65.1427 36.0226 65.1704 35.916 65.1637 35.7561C65.1561 35.5765 65.1108 35.3646 65.0592 35.1379C64.9862 34.8155 64.9002 34.4583 64.8912 34.0862C64.8906 34.0609 64.89 34.0334 64.8893 34.0051C64.882 33.7353 64.8691 33.3356 64.8932 32.9299C64.7415 31.7579 64.567 30.5874 64.3814 29.4074C64.3042 28.9151 64.2234 28.4146 64.1451 27.9211L63.9703 26.8332L65.0201 26.7317C66.3161 26.6195 67.5373 26.0986 68.6197 25.2629C69.2826 24.7578 69.9286 24.2204 70.4879 23.8362C70.183 23.6071 69.8811 23.3744 69.5855 23.135C69.3465 22.9413 69.1412 22.7179 68.9869 22.4895C68.8749 22.6163 68.7449 22.7652 68.5816 22.9465C68.3013 23.2553 68.0655 23.4378 67.858 23.5871C67.5644 23.7944 67.34 23.9344 67.0309 24.2033C66.6878 24.5015 66.2484 24.7509 65.8687 24.8489C65.6959 24.8948 65.4986 24.9493 65.2877 24.9895C65.0087 25.0434 64.7014 25.0702 64.4215 25.0373C64.1906 25.0105 64.0039 24.9362 63.8463 24.8606C63.7955 24.8366 63.7511 24.8128 63.7047 24.7893C63.5842 24.7583 63.4602 24.7188 63.3375 24.6672L63.0758 24.5354L63.0103 24.3283C62.9949 24.2894 62.978 24.2487 62.9605 24.2082C62.9449 24.1908 62.9284 24.1732 62.9107 24.1545C62.8224 24.0615 62.7102 23.9488 62.6021 23.7912C62.4309 23.5421 62.3284 23.2933 62.2144 23.0305C62.1256 22.8261 62.0299 22.6133 61.8863 22.3889C61.7965 22.2487 61.6819 22.0942 61.5689 21.9494L61.3053 21.4699L61.5885 21.1174H61.5836C61.5663 21.1163 61.5736 20.9048 61.5738 20.7532C61.5763 20.6938 61.6006 20.6389 61.6227 20.5793C61.6241 20.5753 61.6261 20.5707 61.6275 20.5666C61.5433 20.148 61.3708 19.6906 61.1715 19.2483C61.149 19.2117 61.1258 19.1743 61.1031 19.1379C60.9923 18.9596 60.8791 18.7897 60.7789 18.6907C60.6708 18.5839 60.4902 18.2705 60.2867 17.9612C60.2712 17.9375 60.2533 17.9144 60.2369 17.8899C60.1933 17.888 60.1491 17.8881 60.1041 17.8908C60.0246 17.8956 59.9369 17.908 59.8453 17.9192C59.7648 17.929 59.6754 17.9371 59.5855 17.9387C59.5014 17.9399 59.3149 17.9097 59.0797 17.8518C58.9352 17.8162 58.7723 17.77 58.6031 17.717C58.1466 17.6286 57.6995 17.4848 57.2799 17.301C57.1833 17.2846 57.092 17.2775 57.0133 17.2873C56.9569 17.2945 56.9019 17.3096 56.8463 17.3244C56.7705 17.3444 56.6928 17.3643 56.5992 17.3616C56.5262 17.3596 56.4556 17.334 56.4195 17.2951C56.403 17.2772 56.394 17.2567 56.3863 17.2385C56.3776 17.2177 56.3701 17.1989 56.3531 17.1887C56.3408 17.1813 56.3233 17.1814 56.3014 17.1809C56.2666 17.1802 56.2212 17.1794 56.1725 17.1487C55.9898 17.0338 55.7981 16.8904 55.6246 16.7551C55.4319 16.6049 55.26 16.4663 55.1383 16.3889C55.0668 16.3431 54.9862 16.2801 54.9615 16.2512L54.2906 15.8196L54.231 15.2082C54.2165 15.0446 54.2122 14.871 54.2154 14.6985C54.2201 14.4374 54.243 14.1813 54.2633 13.9651C54.2828 13.7536 54.286 13.5338 54.2984 13.3225C54.3131 13.0682 54.3419 12.8261 54.4205 12.6369C54.4364 12.5988 54.4857 12.5583 54.5475 12.51C54.5911 12.4759 54.6415 12.4375 54.691 12.3928C54.7608 12.1547 54.8432 11.9221 54.9352 11.6965C54.9336 11.6867 54.9319 11.6764 54.9303 11.6662C54.8924 11.439 54.8533 11.1096 55.1139 10.8098C55.1797 10.7347 55.2485 10.7017 55.3102 10.6731C55.3709 10.6449 55.4256 10.6212 55.4654 10.5647C55.5107 10.5004 55.5336 10.4075 55.5611 10.3069C55.5994 10.1661 55.6463 10.0085 55.7643 9.89671C55.7723 9.88912 55.7807 9.88078 55.7896 9.87229C55.8746 9.79144 56.0022 9.67418 56.1646 9.58616C56.4607 9.19678 56.7775 8.83087 57.109 8.4846C57.6614 7.90832 58.2544 7.38327 58.8775 6.90061C59.1809 6.66596 59.5394 6.51817 59.8619 6.49827C60.1459 6.48158 60.3816 6.56109 60.5289 6.71604C60.7466 6.73852 60.9565 6.87291 61.1314 7.08421C61.3284 7.32331 61.467 7.64282 61.5318 7.98362C61.6614 8.66981 61.8445 9.34399 62.068 10.0041C62.3404 10.8088 62.6716 11.5937 63.0377 12.3655C63.2938 12.9055 63.5738 13.4369 63.8746 13.9592C63.9056 14.013 63.9369 14.0668 63.9684 14.1203C64.2844 14.5211 64.6122 14.9087 64.8336 15.1877C65.0163 15.4183 65.1181 15.6095 65.2066 15.7737C65.2675 15.8862 65.3223 15.9852 65.3941 16.0735C65.4328 16.1209 65.4873 16.1849 65.5533 16.261C65.8224 16.5729 66.2923 17.0881 66.6803 17.5998C66.8522 17.8278 67.0404 18.1042 67.2262 18.3655C67.4917 18.7397 67.7525 19.0836 67.9215 19.216C68.2195 19.4505 68.5164 19.7628 68.7867 20.0354C69.02 20.2712 69.2339 20.4779 69.3941 20.5754L69.9449 21.0959L69.9098 21.1457C70.1907 21.2315 70.4838 21.3755 70.7574 21.5608C71.5003 22.0647 72.2633 22.5354 73.0387 22.9709C73.8144 23.4058 74.6043 23.8095 75.3922 24.1487C75.5452 24.214 75.6888 24.2666 75.8316 24.3088C76.1054 24.391 76.361 24.4162 76.5201 24.3908C76.6828 24.3622 76.724 24.3271 76.7769 24.2629C76.7874 24.2487 76.7977 24.2318 76.8072 24.2121C76.8245 24.0556 76.741 23.8255 76.6441 23.7209C76.5869 23.6309 76.5355 23.5453 76.4898 23.4651C76.2677 23.0722 76.1742 22.7505 76.1041 22.4719C76.0575 22.2831 76.0219 22.1094 75.9742 21.9436C75.948 21.8524 75.9121 21.7281 75.8756 21.5783C75.7101 20.9654 75.613 19.8674 75.7916 18.966C75.8635 18.5648 75.992 18.1228 76.1227 17.7199C76.3105 17.1425 76.4911 16.6363 76.523 16.3703C76.5821 15.904 76.7026 15.3991 76.775 14.9563C76.8312 14.6198 76.8609 14.319 76.8463 14.1057C76.8427 14.0696 76.8349 14.0236 76.8248 13.9885C76.763 13.7691 76.7582 13.561 76.7291 13.2532C76.7073 13.0389 76.6731 12.7728 76.568 12.427C76.4452 12.0298 76.3498 11.7525 76.2594 11.5188C76.1298 11.1936 76.009 10.9474 75.7203 10.6858C75.3979 10.3956 75.0479 10.1492 74.775 9.94651C74.6507 9.85324 74.4957 9.76506 74.3287 9.68577C74.1076 9.58014 73.8632 9.48989 73.6393 9.40061C73.4586 9.32879 73.3145 9.25059 73.1744 9.18186C73.1685 9.1792 73.1626 9.1767 73.1568 9.17405C73.1062 9.15094 73.0573 9.12819 73.0103 9.10765C72.8262 9.07206 72.6422 9.03461 72.4576 8.99534C72.4262 8.99631 72.3925 8.99796 72.358 8.99925C72.1846 9.00553 71.9699 9.01167 71.7144 8.97483C71.3084 8.91573 70.9684 8.7909 70.6148 8.65061C70.3393 8.54094 70.0549 8.42205 69.7203 8.30589C69.4919 8.22655 69.228 8.14238 68.9664 8.04905C68.5798 7.91231 68.1975 7.75013 67.9537 7.59202C67.8618 7.53277 67.7963 7.45971 67.732 7.38597L67.731 7.38499C67.7268 7.3801 67.7226 7.37522 67.7184 7.37034C67.1352 7.03566 66.5454 6.643 66.0562 6.00413C66.0399 5.98293 66.0231 5.9617 66.0064 5.94065C65.9709 5.9044 65.9343 5.86796 65.898 5.83225C65.7215 5.65799 65.5392 5.499 65.398 5.41819C65.246 5.32983 64.9347 5.04677 64.5758 4.78636C64.342 4.61494 64.0896 4.45283 63.8736 4.34104C63.7475 4.2754 63.6537 4.17674 63.5533 4.07737C63.4593 3.98448 63.3596 3.89065 63.2291 3.82835C63.1645 3.79759 63.0884 3.77255 63.0094 3.74827C62.9393 3.72665 62.8642 3.70451 62.7896 3.67893C62.7191 3.6546 62.5777 3.57169 62.3922 3.47972C62.2774 3.42283 62.1465 3.36275 62.0064 3.31077C61.6263 3.22366 61.2512 3.19571 60.9654 3.24143C60.908 3.27424 60.8682 3.31662 60.8443 3.36741C60.8346 3.38835 60.8272 3.41117 60.8219 3.43479C60.8116 3.45382 60.8022 3.47363 60.7926 3.49339C60.7616 3.55678 60.7309 3.62271 60.6822 3.68284C60.6442 3.72982 60.5922 3.75979 60.5504 3.75804C60.5312 3.75709 60.5143 3.74924 60.4986 3.74241C60.4806 3.73455 60.464 3.7282 60.4488 3.73362C60.4379 3.73763 60.4289 3.75027 60.4185 3.76585C60.4019 3.79075 60.3805 3.82284 60.3365 3.84007C60.1728 3.90406 59.9827 3.9777 59.7975 4.06175C59.5898 4.15557 59.3889 4.26172 59.235 4.36546C59.0654 4.47912 58.7998 4.61626 58.5338 4.77561C58.3507 4.88428 58.1642 5.00534 58.0162 5.11936C57.8698 5.23215 57.7389 5.37549 57.6148 5.5178C57.4647 5.68976 57.327 5.85742 57.1744 5.97093C57.1438 5.99356 57.0842 6.00149 57.0094 6.01194C56.9564 6.01934 56.8951 6.02853 56.8316 6.04515C56.666 6.22219 56.5036 6.40094 56.3424 6.58421C56.3407 6.59403 56.3392 6.60529 56.3375 6.61546C56.2976 6.84581 56.2495 7.15522 55.9361 7.39671C55.8565 7.45816 55.783 7.4791 55.7164 7.49827C55.6509 7.51714 55.5921 7.53516 55.5426 7.58811C55.4865 7.64821 55.4485 7.74037 55.4078 7.84104C55.3504 7.98294 55.2879 8.14082 55.1598 8.25413C55.1512 8.26173 55.142 8.27 55.1324 8.27854C55.04 8.36112 54.9047 8.48399 54.735 8.58616C54.4195 9.01332 54.1117 9.45041 53.8131 9.89573C53.3167 10.6361 52.8434 11.4002 52.4039 12.1858C52.2819 12.4033 52.1396 12.6025 51.9869 12.7746C52.0121 12.8482 52.0389 12.9129 52.0768 12.9553C52.0938 12.9743 52.1131 12.989 52.1344 12.9983C52.154 13.0068 52.1755 13.0117 52.1978 13.0139C52.2192 12.9958 52.2422 12.9733 52.2633 12.9524C52.293 12.9229 52.3195 12.8967 52.3346 12.8908C52.3708 12.877 52.3821 12.9293 52.3902 12.968C52.3915 12.9742 52.3929 12.9804 52.3941 12.9856C52.4174 12.9786 52.4415 12.9704 52.4654 12.9621C52.4626 12.9714 52.4587 12.9815 52.4557 12.9914C52.4174 13.1148 52.436 13.1208 52.4644 13.1311C52.4768 13.1356 52.4911 13.1416 52.5035 13.1574C52.5111 13.1682 52.4958 13.2165 52.483 13.2561C52.4792 13.2678 52.4749 13.2793 52.4723 13.2883C52.4636 13.3182 52.4825 13.2893 52.5045 13.2551C52.5331 13.2105 52.5673 13.1574 52.5543 13.2141C52.5129 13.3941 52.5797 13.2893 52.6305 13.2102C52.6452 13.1872 52.6587 13.1665 52.6676 13.1555C52.6964 13.1199 52.692 13.166 52.6773 13.2258C52.6657 13.2733 52.7029 13.2382 52.7418 13.1897C52.7564 13.1714 52.7639 13.1738 52.7721 13.177C52.7805 13.1803 52.79 13.1846 52.8111 13.1662C52.8644 13.1198 52.8919 13.0978 52.9137 13.0803C52.9197 13.0754 52.9255 13.0713 52.9312 13.0666C52.9496 13.0517 52.9687 13.041 52.9879 13.0305C53.011 13.0178 53.0349 13.0046 53.0582 12.9836C53.0728 13.0247 53.0842 13.0728 53.0953 13.1203C53.1006 13.1456 53.0658 13.252 52.9957 13.4201C52.9253 13.5892 52.8251 13.8059 52.7164 14.0276C52.6077 14.2492 52.4973 14.4607 52.4078 14.6203C52.3184 14.7797 52.2574 14.8736 52.2359 14.885C52.1929 14.9076 52.1502 14.9308 52.1109 14.9465C52.0631 14.9656 52.0203 14.9739 51.9889 14.9592C51.9668 14.9488 51.9469 14.9323 51.9293 14.9123C51.9276 14.9104 51.926 14.9084 51.9244 14.9065C51.8802 14.9526 51.8384 14.994 51.817 15.0061C51.7994 15.0159 51.8052 14.9826 51.8102 14.9543C51.8135 14.9351 51.8163 14.9178 51.8111 14.9182C51.8083 14.9185 51.8038 14.9207 51.7984 14.9231C51.7757 14.9329 51.7374 14.9496 51.7389 14.885C51.7395 14.8563 51.7484 14.8035 51.7574 14.7532C51.7703 14.6812 51.7824 14.6142 51.7662 14.6291C51.7378 14.6554 51.734 14.6207 51.731 14.5901C51.7282 14.561 51.7259 14.5355 51.7027 14.5696C51.6748 14.6108 51.6763 14.5902 51.6783 14.5588C51.6797 14.5369 51.681 14.5098 51.6734 14.4953C51.6648 14.4787 51.6697 14.4427 51.6734 14.4123C51.6786 14.3697 51.6818 14.3376 51.6461 14.384C51.6063 14.4358 51.5756 14.4661 51.5719 14.4426C51.5701 14.4324 51.5633 14.4315 51.5562 14.4309C51.5466 14.43 51.5357 14.4289 51.5367 14.4045C51.5376 14.3843 51.5512 14.338 51.5631 14.2971C51.5668 14.2843 51.5708 14.2718 51.5738 14.261C51.5682 14.2592 51.5622 14.2581 51.5562 14.2571C51.5524 14.2637 51.5479 14.271 51.5435 14.2785C51.5213 14.3171 51.4941 14.3652 51.4762 14.3869C51.448 14.4211 51.4482 14.3922 51.4488 14.3616C51.4493 14.3378 51.45 14.3126 51.4371 14.3157C51.4282 14.318 51.4122 14.3332 51.3971 14.3479C51.3746 14.3695 51.3529 14.391 51.3521 14.3713C51.3519 14.3639 51.3615 14.3345 51.3707 14.3059L51.3727 14.3C51.3449 14.3132 51.3158 14.3282 51.2867 14.3449C51.2821 14.3514 51.2776 14.3582 51.273 14.3645C51.2509 14.395 51.2291 14.4244 51.2047 14.469C51.1782 14.5173 51.1528 14.5415 51.1256 14.5666C51.1078 14.5831 51.0894 14.6004 51.0699 14.6252C51.0585 14.6398 51.0661 14.6088 51.0738 14.5774C51.0809 14.5483 51.088 14.5191 51.0807 14.5237C51.0769 14.5262 51.069 14.5365 51.0611 14.5481C51.0541 14.5583 51.0463 14.5692 51.0406 14.5754C51.0356 14.5806 51.0366 14.5628 51.0377 14.5403C51.0383 14.5264 51.0392 14.5107 51.0387 14.4973C51.0176 14.5095 50.9964 14.5211 50.9762 14.5315C50.9631 14.5555 50.9472 14.5872 50.9283 14.6282C50.9147 14.6577 50.8985 14.6934 50.8824 14.7297C50.8605 14.7791 50.838 14.8301 50.8189 14.8703C50.804 14.9019 50.7964 14.9136 50.8004 14.8996C50.8023 14.8931 50.8073 14.8811 50.8111 14.8703C50.8155 14.858 50.818 14.8469 50.818 14.8469C50.818 14.8469 50.8137 14.8558 50.8092 14.8655C50.8016 14.8816 50.7918 14.9029 50.7896 14.9035C50.7821 14.9038 50.7775 14.8937 50.773 14.884C50.7682 14.8733 50.7631 14.8627 50.7545 14.8664C50.7446 14.8709 50.7477 14.8351 50.7506 14.7991C50.7526 14.774 50.7539 14.749 50.7516 14.7375C50.7492 14.7264 50.736 14.7421 50.7232 14.7571C50.7081 14.7748 50.6937 14.7916 50.6988 14.7619C50.6999 14.7557 50.7127 14.7194 50.7281 14.675C50.739 14.6437 50.7512 14.6075 50.7623 14.5744C50.7549 14.5715 50.7481 14.5673 50.7418 14.5617C50.7397 14.5664 50.7372 14.5716 50.735 14.5764C50.6851 14.6851 50.6173 14.8338 50.6412 14.7385C50.6473 14.7143 50.6621 14.671 50.6754 14.6321C50.6885 14.5938 50.7002 14.5589 50.7008 14.551C50.701 14.5433 50.6891 14.5647 50.6764 14.5881C50.6581 14.6217 50.6377 14.659 50.6471 14.6203C50.6477 14.6179 50.6484 14.6152 50.649 14.6125C50.6556 14.585 50.6652 14.544 50.69 14.4641C50.6821 14.4371 50.6753 14.4061 50.6695 14.3733C50.6599 14.3188 50.6529 14.2581 50.6451 14.1975C50.6414 14.1676 50.6692 14.0559 50.7242 13.8821C50.7733 13.7272 50.8402 13.5352 50.9146 13.3352C50.9123 13.3347 50.9101 13.3338 50.9078 13.3332C50.8186 13.5324 50.6883 13.7049 50.5338 13.8215C50.3602 13.9521 50.1746 14.0027 50.0133 13.968C49.6881 13.8975 49.3616 13.8355 49.0367 13.7727C48.6408 13.6961 48.2465 13.6192 47.856 13.5266C47.5828 13.4618 47.3097 13.396 47.0357 13.3303C47.0075 13.3235 46.979 13.3166 46.9508 13.3098C46.707 13.3236 46.4661 13.3367 46.2994 13.3283C46.1618 13.3214 46.0682 13.2734 45.9879 13.2326C45.9326 13.2046 45.8833 13.1803 45.8307 13.175C45.8024 13.1722 45.7633 13.1695 45.7164 13.1672C45.5244 13.1574 45.2 13.1449 44.9127 13.052C44.785 13.0106 44.6386 12.9421 44.4977 12.8782C44.2964 12.7865 44.1051 12.704 44.0045 12.716C43.8279 12.7369 43.6318 12.6916 43.4566 12.6535C43.29 12.6172 43.1431 12.5875 43.0572 12.6242C42.9548 12.668 42.8708 12.6436 42.7447 12.6086C42.6574 12.5844 42.5498 12.5559 42.4029 12.5412C42.2334 12.5244 42.1137 12.4875 42.0113 12.4563C41.8674 12.4125 41.7577 12.3797 41.5953 12.4358C41.4157 12.498 41.2275 12.5391 41.0797 12.5207C41.0123 12.5123 40.935 12.5151 40.8551 12.5188C40.7493 12.5236 40.6366 12.5291 40.5338 12.509C40.4491 12.4924 40.3781 12.4469 40.315 12.4065C40.2954 12.3939 40.2766 12.3818 40.2584 12.3713C40.1913 12.3742 40.1241 12.377 40.0572 12.3811C40.0467 12.3892 40.0356 12.3991 40.024 12.4084C39.9658 12.4551 39.894 12.5119 39.8043 12.5432C39.6622 12.5927 39.5345 12.5727 39.4 12.552C39.296 12.5359 39.1852 12.5198 39.0621 12.5364C38.978 12.5477 38.883 12.5743 38.7896 12.6008C38.6514 12.64 38.514 12.6798 38.4156 12.6701C38.3787 12.6665 38.3447 12.6387 38.3111 12.6116L38.3043 12.6057C38.0704 12.6494 37.8371 12.6974 37.6041 12.7492C37.5846 12.7591 37.565 12.7689 37.5455 12.7785C37.4499 12.8259 37.3571 12.8723 37.3004 12.9299C37.2388 12.9923 37.0703 13.0445 36.8951 13.1008C36.78 13.1377 36.6629 13.1761 36.567 13.2199C36.5113 13.2454 36.4522 13.223 36.3912 13.1994C36.3343 13.1774 36.2754 13.1543 36.2174 13.1701C36.1883 13.1782 36.1576 13.1955 36.1256 13.2141C36.0974 13.2305 36.0677 13.2482 36.0357 13.261C36.0062 13.2728 35.9346 13.2664 35.8424 13.259C35.7855 13.2544 35.7209 13.25 35.6539 13.2483C35.4846 13.2951 35.3183 13.3417 35.148 13.3889C35.1168 13.422 35.0914 13.462 35.0748 13.511C35.0629 13.5461 35.0548 13.5873 35.0465 13.6291C35.0351 13.686 35.0241 13.7451 35.0025 13.7942C34.9857 13.8324 34.9608 13.8506 34.94 13.8401C34.9303 13.835 34.9207 13.8239 34.9127 13.8137C34.9036 13.802 34.8956 13.7915 34.8883 13.7932C34.8832 13.7947 34.8793 13.8046 34.8746 13.8166C34.867 13.8364 34.8569 13.8616 34.8355 13.8664C34.7571 13.8841 34.6626 13.8945 34.5719 13.9045C34.4707 13.9157 34.372 13.9273 34.2965 13.9494C34.2122 13.9742 34.0813 13.9659 33.9498 13.9582C33.8583 13.9528 33.7668 13.947 33.691 13.9533C33.6163 13.9597 33.5467 13.9947 33.4762 14.0295C33.3926 14.0711 33.3132 14.1119 33.235 14.0989C33.2191 14.0962 33.1929 14.0632 33.1598 14.0227C33.1363 13.994 33.1095 13.9611 33.0807 13.9319C32.9895 13.9531 32.8988 13.9728 32.8053 13.9924C32.8032 13.9981 32.8015 14.005 32.7994 14.011C32.7518 14.1453 32.6884 14.3284 32.523 14.2698C32.4809 14.2548 32.4472 14.2156 32.4166 14.1809C32.3867 14.147 32.3598 14.1164 32.3316 14.1155C32.2989 14.1149 32.2683 14.1485 32.2359 14.1848C32.1905 14.2357 32.1407 14.2927 32.0699 14.2707C32.0651 14.2692 32.0597 14.2675 32.0543 14.2658C32.003 14.2504 31.9276 14.2274 31.8414 14.1643C31.6435 14.1947 31.4391 14.2248 31.2418 14.2522C30.9049 14.3002 30.5705 14.3454 30.2359 14.3967C30.0767 14.4201 29.887 14.364 29.7203 14.2287C29.569 14.1068 29.4438 13.9314 29.3619 13.7307L29.356 13.7317C29.4272 13.9412 29.4896 14.1424 29.5309 14.303C29.5762 14.4796 29.5938 14.5911 29.5807 14.6174C29.5532 14.6686 29.5254 14.7202 29.4957 14.7639C29.4594 14.8172 29.4194 14.8595 29.3707 14.8772C29.3369 14.8894 29.3006 14.8962 29.2633 14.8987C29.2594 14.8989 29.2554 14.8995 29.2516 14.8996C29.2439 14.9668 29.2351 15.0289 29.2223 15.0549C29.2116 15.0762 29.1876 15.0507 29.1676 15.0285C29.154 15.0135 29.1418 14.9997 29.1363 15.0041C29.1335 15.0067 29.1305 15.0125 29.1266 15.0188C29.1103 15.0445 29.0822 15.0881 29.026 15.0461C29.001 15.0274 28.9635 14.9861 28.9283 14.9465C28.8782 14.8901 28.8317 14.8376 28.8268 14.8606C28.8188 14.9018 28.7841 14.8832 28.7535 14.8664C28.7243 14.8505 28.6986 14.8369 28.7037 14.8791C28.7096 14.929 28.6923 14.9144 28.6666 14.8928C28.6487 14.8778 28.6262 14.8592 28.6051 14.8567C28.5806 14.8538 28.5538 14.8273 28.5309 14.8049C28.4985 14.7735 28.4741 14.7503 28.4762 14.8108C28.4785 14.8781 28.4709 14.9248 28.4459 14.9133C28.4348 14.9083 28.4269 14.9133 28.4185 14.9192C28.4072 14.9271 28.3953 14.9353 28.3746 14.9192C28.3576 14.9059 28.3306 14.8656 28.3072 14.8293C28.2999 14.818 28.293 14.8065 28.2867 14.7971C28.2791 14.8009 28.2715 14.8053 28.2643 14.8098C28.2659 14.8175 28.2681 14.8265 28.2701 14.8352C28.28 14.8789 28.2919 14.9328 28.2916 14.9621C28.2909 15.008 28.2662 14.9896 28.2398 14.9699C28.2193 14.9545 28.1975 14.9386 28.1861 14.9524C28.1785 14.9619 28.175 14.9847 28.1715 15.0071C28.1663 15.0405 28.1605 15.0735 28.1422 15.0617C28.1352 15.057 28.1203 15.03 28.1051 15.0041C28.104 15.0024 28.1022 15.001 28.1012 14.9992C28.0827 15.0319 28.0652 15.0667 28.0484 15.1028C28.0491 15.1108 28.0498 15.1193 28.0504 15.1272C28.0534 15.1659 28.057 15.2035 28.0699 15.2532C28.0838 15.3069 28.0761 15.3451 28.0689 15.385C28.0642 15.411 28.0594 15.4381 28.0602 15.4709C28.0605 15.4898 28.0424 15.464 28.023 15.4377C28.005 15.4132 27.9859 15.3882 27.982 15.3977C27.9802 15.4027 27.9823 15.4166 27.984 15.4309C27.9854 15.4432 27.9865 15.4563 27.9859 15.4651C27.9853 15.4733 27.9707 15.4616 27.9518 15.4465C27.9402 15.4373 27.927 15.4271 27.9146 15.4192C27.9029 15.4455 27.8901 15.4708 27.8775 15.4953C27.8846 15.522 27.8958 15.5563 27.9117 15.5989C27.9231 15.6293 27.9371 15.6655 27.9518 15.7024C27.9717 15.7527 27.9933 15.8048 28.0084 15.8469C28.0201 15.8796 28.0223 15.8933 28.0143 15.8811C28.0105 15.8754 28.0049 15.8646 27.9996 15.8547C27.9939 15.844 27.9869 15.8332 27.9869 15.8332C27.9869 15.8332 27.99 15.8426 27.9937 15.8528C28 15.8697 28.0076 15.8919 28.0055 15.8938C27.9976 15.9006 27.9843 15.8988 27.9713 15.8967C27.9567 15.8944 27.9419 15.8923 27.9361 15.9026C27.9293 15.9134 27.9009 15.8891 27.8727 15.8645C27.8528 15.8472 27.8334 15.8294 27.8209 15.8244C27.8088 15.8197 27.8085 15.8409 27.8082 15.8616C27.8078 15.8865 27.8067 15.9106 27.7857 15.8869C27.7809 15.8808 27.7638 15.848 27.7418 15.8078C27.7258 15.7787 27.7073 15.7455 27.69 15.7151C27.6798 15.7199 27.6683 15.7235 27.6568 15.7258C27.6586 15.7305 27.6598 15.7356 27.6617 15.7405C27.7045 15.8523 27.7637 16.0052 27.7057 15.925C27.6909 15.9046 27.669 15.865 27.649 15.8293C27.6297 15.7948 27.6118 15.7635 27.6051 15.7571C27.5979 15.751 27.6046 15.7746 27.6119 15.801C27.6222 15.8381 27.633 15.8801 27.609 15.8479C27.6074 15.8458 27.6058 15.8434 27.6041 15.841C27.5869 15.8182 27.5612 15.7836 27.5172 15.7121C27.4854 15.7029 27.4521 15.6906 27.4176 15.676C27.3598 15.6516 27.2989 15.6217 27.2379 15.592C27.208 15.5773 27.1394 15.4838 27.0435 15.3283C26.9476 15.1727 26.8321 14.9686 26.7213 14.7532C26.6105 14.5377 26.5117 14.3251 26.443 14.1555C26.3743 13.9862 26.3424 13.8743 26.3512 13.8401C26.3654 13.7848 26.3807 13.7293 26.3971 13.677C26.3966 13.6716 26.3963 13.6663 26.3961 13.6614C26.3943 13.6243 26.3767 13.5569 26.359 13.4895C26.3549 13.4741 26.3511 13.4586 26.3473 13.4436C26.318 13.3285 26.3821 13.3503 26.4166 13.3625H26.4391C26.4556 13.3592 26.4783 13.3553 26.5514 13.4026C26.5621 13.3944 26.5736 13.3867 26.5855 13.3811C26.7148 13.3201 26.8846 13.349 27.0592 13.3977L27.0641 13.3938C27.091 13.3687 27.1248 13.3375 27.1666 13.3655C27.2199 13.401 27.2617 13.437 27.2965 13.469C27.4343 13.5106 27.567 13.5452 27.6803 13.5354C27.7158 13.5322 27.7495 13.5248 27.7809 13.5119C27.8097 13.5001 27.8367 13.485 27.8629 13.467C27.8703 13.4368 27.875 13.4021 27.8795 13.3703C27.8858 13.3257 27.8916 13.2855 27.9029 13.2688C27.9301 13.2285 27.9887 13.2523 28.0318 13.2698C28.0388 13.2726 28.0454 13.2753 28.0514 13.2776C28.0704 13.2531 28.0894 13.2272 28.108 13.2014C28.1132 13.2097 28.1192 13.2188 28.1246 13.2278C28.192 13.3387 28.2174 13.3277 28.2574 13.3098C28.2748 13.302 28.2952 13.2929 28.3228 13.2922C28.3407 13.2918 28.367 13.3359 28.3883 13.3723C28.3946 13.383 28.4007 13.3936 28.4059 13.4016C28.4232 13.4284 28.4182 13.3943 28.4117 13.3537C28.4033 13.3008 28.393 13.2372 28.4293 13.2844C28.5253 13.4095 28.5253 13.3444 28.5143 13.2649C28.4785 13.2309 28.4416 13.1958 28.4049 13.1584C27.9718 12.7254 27.4685 12.0243 27.0455 11.3215C26.1599 9.84517 25.2209 8.41756 24.2018 7.07835C22.955 5.4511 21.5792 3.90393 20.0084 2.85569ZM39.2174 40.2414C39.2247 40.2496 39.2292 40.2633 39.233 40.2756C39.2373 40.2897 39.2413 40.3026 39.2486 40.3039C39.254 40.3048 39.2619 40.297 39.2711 40.2873C39.2857 40.272 39.3047 40.2522 39.3268 40.2561C39.4074 40.2704 39.5092 40.3035 39.6041 40.3401C39.7163 40.3825 39.8241 40.4305 39.9244 40.466C40.0316 40.5035 40.1789 40.6112 40.3297 40.7551C40.4308 40.8522 40.536 40.9691 40.6275 41.0764C40.7167 41.1802 40.828 41.2863 40.9264 41.4084C41.0454 41.5549 41.1421 41.7258 41.1578 41.884C41.161 41.9159 41.1353 41.965 41.1002 42.0198C41.0754 42.0588 41.0456 42.1017 41.0182 42.1467C41.049 42.3165 41.0521 42.4801 41.0396 42.6213C41.0444 42.6268 41.0494 42.6322 41.0543 42.6379L41.1373 42.7473C41.2147 42.8678 41.2614 43.0182 41.149 43.1438C41.111 43.1857 41.0579 43.2011 41.0103 43.2141C40.9638 43.2258 40.9228 43.234 40.9049 43.261C40.8846 43.2914 40.8929 43.3389 40.9 43.3918C40.9104 43.4653 40.9216 43.5441 40.856 43.5881C40.8516 43.591 40.8463 43.5937 40.8414 43.5969C40.7934 43.6302 40.7273 43.6665 40.6227 43.6819C40.5103 43.8348 40.3947 43.9589 40.273 44.0754C40.0737 44.2638 39.8709 44.4135 39.6656 44.552C39.5662 44.6183 39.4058 44.618 39.2232 44.5422C39.0393 44.4673 38.8459 44.3276 38.6783 44.1526C38.5107 43.9777 38.3794 43.7797 38.2994 43.6028C38.2191 43.4264 38.2 43.2843 38.2408 43.2024C38.3003 43.0847 38.3519 42.9672 38.3951 42.8576C38.3378 42.8411 38.2773 42.8258 38.2164 42.8117C38.2103 42.8123 38.2041 42.8131 38.1978 42.8137C38.1237 42.8207 38.0405 42.8301 37.9586 42.8313C37.8874 42.8326 37.8198 42.8283 37.7652 42.8127C37.6052 42.7658 37.4963 42.7201 37.4078 42.6809C36.9085 42.6104 36.4185 42.5531 35.9693 42.5823C35.8593 42.5897 35.755 42.6032 35.6568 42.6223C35.6165 42.7656 35.6967 42.8429 35.8346 42.9592C35.897 43.0117 35.9614 43.0646 36.0475 43.1448C36.1021 43.1957 36.0958 43.2548 36.0953 43.3069C36.0949 43.322 36.0951 43.3363 36.0963 43.3489C36.1005 43.3914 36.1457 43.3832 36.1998 43.3733C36.2705 43.3606 36.3563 43.3451 36.3814 43.4328C36.4247 43.5765 36.4934 43.6423 36.5641 43.6662L36.6178 43.6877L36.8082 43.9758C36.8393 44.0007 36.8993 44.0006 36.9488 43.9953C36.9782 43.9925 37.0045 43.9885 37.0211 43.9895C37.0742 43.9923 37.0583 44.0455 37.0348 44.1096C37.0158 44.1613 37.0894 44.1638 37.1393 44.1233C37.1585 44.1086 37.1656 44.1123 37.1734 44.1155C37.1811 44.1186 37.191 44.1208 37.2047 44.0979C37.226 44.0596 37.2334 44.0314 37.2418 44.01C37.2459 43.9988 37.2499 43.9887 37.2535 43.9797C37.2566 43.9722 37.2601 43.9646 37.2633 43.9573C37.2731 43.9341 37.2894 43.9128 37.3111 43.8869C37.3367 43.8562 37.3695 43.8177 37.3902 43.7746C37.4917 43.7578 37.6271 43.714 37.7682 43.6487C37.8406 43.6155 37.9718 43.6473 38.1422 43.7385C38.3126 43.8302 38.5071 43.9745 38.6783 44.1526C38.8491 44.3308 38.984 44.5322 39.0455 44.7239C39.1076 44.9148 39.0887 45.08 38.9996 45.177C38.9348 45.2473 38.8651 45.3161 38.7916 45.385C38.7914 45.4041 38.7926 45.4239 38.7926 45.4436L38.7975 45.4465C38.8293 45.4675 38.8686 45.4922 38.8551 45.5412C38.8379 45.6038 38.8181 45.6567 38.8004 45.7014C38.8136 45.8542 38.8484 46.0056 38.9244 46.1174C38.9482 46.1524 38.9765 46.1834 39.0084 46.2092C39.0377 46.2329 39.07 46.2527 39.1041 46.2698C39.1367 46.2628 39.1714 46.251 39.2027 46.2395C39.2468 46.2234 39.2854 46.2078 39.3072 46.2092C39.3597 46.2125 39.3783 46.2768 39.3941 46.3244C39.3966 46.332 39.3986 46.3395 39.401 46.3459C39.4352 46.3486 39.47 46.3489 39.5045 46.3489C39.5014 46.3582 39.499 46.3683 39.4957 46.3782C39.4542 46.5026 39.4842 46.5185 39.5309 46.5403C39.5513 46.5498 39.5749 46.5605 39.5982 46.5823C39.6133 46.5963 39.6004 46.6464 39.5904 46.6877C39.5875 46.6999 39.5853 46.7115 39.5836 46.7209C39.5777 46.753 39.5997 46.726 39.6256 46.6936C39.6595 46.6515 39.6991 46.5997 39.6949 46.6594C39.6834 46.8522 39.7609 46.7507 39.8131 46.6711C39.8287 46.6479 39.8421 46.6263 39.8521 46.6155C39.8847 46.5803 39.8932 46.63 39.8922 46.6936C39.8913 46.7441 39.9371 46.7092 39.9771 46.6584C39.9922 46.6395 40.004 46.6423 40.0172 46.6457C40.0308 46.6492 40.0467 46.6537 40.0699 46.634C40.129 46.583 40.1575 46.5568 40.1803 46.5364C40.1865 46.5307 40.1921 46.5252 40.1978 46.5198C40.2166 46.502 40.2379 46.488 40.2584 46.4739C40.2828 46.457 40.3071 46.4393 40.3268 46.4133C40.3603 46.45 40.3945 46.4928 40.4312 46.5344C40.4499 46.556 40.4604 46.6684 40.4664 46.8518C40.472 47.0353 40.4726 47.2741 40.4605 47.5207C40.4591 47.5509 40.4546 47.5808 40.4527 47.6106C40.4543 47.6139 40.4561 47.617 40.4576 47.6203C40.4723 47.4006 40.5004 47.1923 40.5318 47.0285C40.5674 46.8468 40.6021 46.7358 40.6373 46.7151C40.7086 46.6739 40.7737 46.6283 40.8346 46.5871C40.9091 46.5368 40.9777 46.4932 41.0523 46.469C41.1047 46.452 41.158 46.4368 41.2144 46.4231C41.2201 46.4217 41.2263 46.4205 41.232 46.4192C41.2502 46.3438 41.2654 46.2733 41.2838 46.2405C41.2992 46.2134 41.3326 46.2317 41.3619 46.2463C41.3818 46.2563 41.3998 46.2649 41.4078 46.2571C41.412 46.2527 41.4168 46.2446 41.4225 46.2356C41.4461 46.1983 41.4822 46.1354 41.5699 46.1418C41.6088 46.1449 41.6683 46.1633 41.7271 46.178C41.8105 46.1998 41.8922 46.2149 41.8971 46.1828C41.904 46.1274 41.9602 46.1134 42.0113 46.0989C42.0594 46.0857 42.1029 46.0716 42.0875 46.0276C42.0688 45.9749 42.0976 45.9723 42.1422 45.966C42.1727 45.962 42.2114 45.9554 42.2437 45.9319C42.2816 45.9039 42.3298 45.8988 42.3707 45.8938C42.4277 45.8872 42.4707 45.8806 42.4518 45.8098C42.4311 45.7307 42.4266 45.6662 42.4664 45.6428C42.4846 45.6323 42.4958 45.6134 42.5064 45.593C42.5201 45.5667 42.5342 45.539 42.5689 45.5266C42.5975 45.5165 42.6484 45.5247 42.6939 45.5315C42.708 45.5336 42.7218 45.5351 42.734 45.5364C42.7435 45.5195 42.7535 45.5022 42.7623 45.4846C42.7573 45.4779 42.7515 45.4706 42.7457 45.4631C42.7167 45.4256 42.6809 45.3802 42.6705 45.344C42.6545 45.2861 42.6943 45.2684 42.7379 45.2483C42.7716 45.2328 42.8069 45.2161 42.817 45.1799C42.8237 45.1552 42.8196 45.1216 42.815 45.0881C42.8082 45.0383 42.8008 44.9888 42.8297 44.9709C42.8406 44.9642 42.8721 44.9699 42.9029 44.9748L42.9088 44.9758C42.9181 44.9041 42.9263 44.828 42.9303 44.7541C42.9257 44.7456 42.921 44.7372 42.9166 44.7287C42.895 44.6872 42.8735 44.6467 42.8346 44.6096C42.7922 44.5697 42.7835 44.5094 42.7721 44.4494C42.7648 44.4096 42.7563 44.3676 42.7389 44.3293C42.7339 44.3182 42.7405 44.312 42.7525 44.3078L42.8463 44.2922C42.8588 44.2886 42.867 44.283 42.8668 44.2737C42.8664 44.2642 42.8575 44.2508 42.8482 44.2366C42.8401 44.224 42.8316 44.2104 42.8277 44.1985C42.8243 44.1874 42.8473 44.1746 42.8766 44.1575C42.8946 44.1469 42.9149 44.1345 42.9332 44.1203C42.9328 44.0653 42.9325 44.0117 42.9332 43.9573C42.911 43.9382 42.8808 43.9174 42.8404 43.8957C42.8114 43.8802 42.776 43.8631 42.7398 43.8459C42.6907 43.8226 42.6396 43.7992 42.6002 43.7766C42.5694 43.7589 42.5594 43.7468 42.5748 43.7463C42.5821 43.7462 42.5948 43.7483 42.606 43.7502L43.5396 42.7024L43.7867 42.7688C43.7932 42.7811 43.7993 42.7923 43.8043 42.7912C43.8078 42.7903 43.8099 42.7804 43.8131 42.7688C43.8182 42.75 43.8255 42.7256 43.8404 42.7229C43.8941 42.7133 43.9524 42.7152 44.0064 42.719C44.0662 42.7231 44.122 42.7288 44.1646 42.7209C44.2139 42.7119 44.2829 42.7462 44.3482 42.7825C44.3937 42.8076 44.4385 42.8339 44.4762 42.8459C44.5139 42.8577 44.5537 42.8415 44.5943 42.8264C44.642 42.8082 44.6902 42.7921 44.7242 42.8264C44.7311 42.8335 44.7361 42.8721 44.7418 42.9201C44.7458 42.9542 44.7508 42.9933 44.7564 43.0295C44.8022 43.0359 44.8484 43.0448 44.8941 43.0559C44.8967 43.0512 44.8993 43.0461 44.9019 43.0412L44.9508 42.9553C45.0035 42.872 45.0649 42.8099 45.108 42.8948C45.1223 42.9235 45.1245 42.9704 45.1256 43.0129C45.1267 43.0548 45.1274 43.0929 45.1393 43.1037C45.1527 43.1158 45.1775 43.0967 45.2047 43.0764C45.243 43.0477 45.2887 43.0164 45.3102 43.0637C45.3116 43.067 45.3134 43.0708 45.315 43.0744C45.3304 43.1085 45.3536 43.1598 45.36 43.2502C45.452 43.3052 45.5413 43.3691 45.6266 43.4407C45.7688 43.5601 45.8992 43.7015 46.0103 43.8567C46.0647 43.9325 46.0553 44.0777 45.9674 44.2463C45.8799 44.4157 45.7234 44.5929 45.5465 44.758C45.3694 44.9233 45.1872 45.0713 45.0494 45.1916C44.9108 45.3108 44.8292 45.3912 44.8043 45.4055C44.7635 45.428 44.7246 45.4539 44.6871 45.4787C44.6838 45.4827 44.6804 45.4869 44.6773 45.4905C44.6542 45.5168 44.6177 45.575 44.5846 45.635C44.5769 45.6487 44.5693 45.6625 44.5621 45.676C44.5089 45.7792 44.5092 45.7297 44.4986 45.6994V45.6975C44.4966 45.6905 44.4929 45.6877 44.4889 45.6848C44.4783 45.6778 44.468 45.668 44.44 45.5881L44.4391 45.5871C44.299 45.7471 44.163 45.9068 44.0406 46.0735C43.985 46.1496 43.9349 46.2233 43.8853 46.303C43.8399 46.376 43.797 46.4483 43.7535 46.5246C43.7461 46.5804 43.7438 46.6356 43.7398 46.6887C43.7342 46.7636 43.7281 46.8308 43.7086 46.8752C43.66 46.9845 43.5436 47.0599 43.4547 47.1135C43.4403 47.1222 43.426 47.1303 43.4137 47.1379C43.3751 47.2056 43.3325 47.2769 43.2906 47.345C43.2801 47.3421 43.2695 47.3384 43.2584 47.3352C43.1178 47.2947 43.065 47.3503 42.9693 47.4407C42.9284 47.4792 42.8801 47.5232 42.8141 47.5657C42.7715 47.5929 42.7194 47.5689 42.6773 47.5491C42.665 47.5432 42.6533 47.5372 42.6432 47.5334C42.6086 47.5209 42.6132 47.5606 42.6178 47.6076C42.6237 47.6688 42.6296 47.7427 42.5533 47.7268C42.3161 47.671 42.3248 47.8072 42.3228 47.9172C42.3227 47.949 42.3219 47.9785 42.315 47.9983C42.2923 48.0622 42.2063 48.0587 42.1305 48.0295C42.0702 48.0072 42.0169 48.0857 41.9791 48.1682C41.9652 48.1994 41.9332 48.2139 41.8961 48.2297C41.8578 48.246 41.8123 48.2643 41.7721 48.3059C41.6686 48.4119 41.6063 48.4628 41.5562 48.5032C41.5419 48.5146 41.5278 48.5247 41.5143 48.5354C41.493 48.5521 41.4687 48.5692 41.442 48.5852L41.1588 48.7414C41.0371 48.7363 40.9171 48.7177 40.7994 48.6955C40.7914 48.7553 40.7826 48.8207 40.776 48.8899C40.7515 49.1293 40.7308 49.41 40.6891 49.7034C40.66 49.9076 40.6274 50.1232 40.5875 50.342C40.5834 50.3646 40.5791 50.3876 40.5748 50.4104C40.6099 50.6053 40.6362 50.8058 40.6334 50.9475C40.6312 51.0643 40.584 51.1443 40.5435 51.2121C40.5158 51.2586 40.4911 51.2997 40.485 51.345C40.4817 51.3693 40.4791 51.4032 40.4752 51.4446C40.4598 51.6123 40.4245 51.9083 40.2818 52.1623C40.2193 52.2736 40.1215 52.3974 40.0221 52.511C39.8805 52.6739 39.7337 52.8156 39.7027 52.9123C39.6492 53.0836 39.5075 53.245 39.3687 53.3733C39.2369 53.4967 39.1097 53.5913 39.0699 53.6828C39.0223 53.7927 38.9328 53.8413 38.8014 53.8987C38.7113 53.937 38.5987 53.982 38.4537 54.0461C38.2909 54.1171 38.1506 54.1325 38.0484 54.1369C37.902 54.1433 37.7832 54.1438 37.65 54.2287C37.4935 54.325 37.3098 54.3848 37.1725 54.3723C37.1088 54.367 37.0346 54.3724 36.9586 54.3752C36.8653 54.379 36.7642 54.3795 36.6725 54.3518C36.5976 54.329 36.533 54.2754 36.4889 54.2287C36.4743 54.2142 36.4604 54.2002 36.4469 54.1877C36.3914 54.1827 36.3349 54.1762 36.2779 54.1701C36.2677 54.1766 36.2561 54.1843 36.2447 54.1916C36.1959 54.2232 36.1362 54.2605 36.066 54.2785C36.0544 54.2815 36.042 54.2836 36.0299 54.2854C35.8937 54.3056 35.7873 54.2561 35.6812 54.2014C35.5929 54.1573 35.5051 54.1099 35.398 54.0852C35.3278 54.0693 35.2308 54.0572 35.1422 54.0442C35.0112 54.0256 34.8726 53.9946 34.7965 53.9367C34.768 53.9151 34.7546 53.8742 34.7428 53.8342L34.7408 53.8254C34.5285 53.7394 34.3174 53.6317 34.1178 53.4983C34.0967 53.4905 34.0752 53.4822 34.0543 53.4739C33.9514 53.4326 33.8539 53.3859 33.7701 53.3713C33.6779 53.3546 33.5258 53.2365 33.3795 53.0871C33.2839 52.9908 33.1923 52.8836 33.1109 52.7981C33.0633 52.7481 33.0616 52.6775 33.0631 52.6067C33.0644 52.5402 33.0676 52.4731 33.0357 52.4162C33.0198 52.3879 32.9944 52.3601 32.9684 52.3303C32.9454 52.304 32.9214 52.2752 32.9019 52.2434C32.8841 52.2136 32.8755 52.1367 32.8697 52.0403C32.8663 51.9808 32.8637 51.9129 32.86 51.844C32.7995 51.6736 32.7517 51.5021 32.7154 51.3323C32.6844 51.2995 32.6465 51.2712 32.5992 51.2502C32.5652 51.2351 32.5249 51.2231 32.484 51.2102C32.4283 51.1927 32.3704 51.1736 32.3238 51.1448C32.2876 51.1223 32.2724 51.0939 32.2857 51.0735C32.292 51.064 32.3039 51.056 32.315 51.0491C32.3277 51.0412 32.339 51.0344 32.3385 51.0266C32.3379 51.0209 32.3286 51.0149 32.317 51.008C32.2986 50.9972 32.2748 50.9831 32.273 50.9602C32.2671 50.8736 32.274 50.776 32.2828 50.6828C32.2925 50.5792 32.3045 50.4792 32.3023 50.4006C32.2998 50.312 32.3444 50.1882 32.3922 50.0715C32.4254 49.9896 32.4601 49.9081 32.4801 49.8391C32.4996 49.7713 32.4923 49.6968 32.4859 49.6242C32.4783 49.5372 32.4719 49.4538 32.5152 49.3928C32.524 49.3805 32.5645 49.3707 32.6148 49.3596C32.6504 49.3517 32.6909 49.3428 32.7291 49.3313C32.7469 49.2489 32.7678 49.1675 32.7906 49.0871C32.7864 49.0831 32.7814 49.0787 32.7769 49.0744C32.6775 48.9797 32.5443 48.8431 32.6744 48.7405C32.7074 48.7148 32.7568 48.7072 32.8014 48.7004C32.8452 48.6938 32.8847 48.6879 32.899 48.6672C32.9151 48.6434 32.9007 48.6053 32.8853 48.5637C32.8809 48.5516 32.8795 48.538 32.8756 48.5256C32.8126 48.5127 32.7476 48.4919 32.691 48.4504C32.6319 48.4076 32.572 48.336 32.5201 48.2659C32.4445 48.1654 32.3883 48.0699 32.3375 48.0696C32.2476 48.0696 32.177 48.0019 32.1178 47.9397C32.0628 47.8814 32.0182 47.8292 31.9644 47.844C31.8992 47.8616 31.8777 47.8241 31.8473 47.7678C31.8266 47.7291 31.8 47.68 31.7564 47.635C31.7051 47.5822 31.6863 47.5229 31.6715 47.4729C31.6521 47.4034 31.64 47.3523 31.5523 47.3498C31.4544 47.3464 31.3715 47.3222 31.3424 47.2639C31.3293 47.2375 31.3053 47.2162 31.2818 47.1946C31.2506 47.1657 31.218 47.134 31.2076 47.0881C31.1992 47.0502 31.2174 46.9973 31.235 46.9524C31.2403 46.9383 31.2454 46.9246 31.2496 46.9123C31.2328 46.8932 31.2151 46.8738 31.1978 46.8547C31.1894 46.8563 31.1801 46.8577 31.1705 46.8596C31.1216 46.8693 31.0609 46.8808 31.0172 46.8684C30.9495 46.8506 30.9414 46.7943 30.9342 46.7356C30.9286 46.69 30.9226 46.6416 30.8902 46.6086C30.8677 46.5856 30.8308 46.5661 30.7945 46.5461C30.7409 46.5166 30.6879 46.4852 30.6842 46.4455C30.6827 46.4303 30.7027 46.4036 30.7223 46.3782C30.7235 46.3765 30.7249 46.3749 30.7262 46.3733C30.6609 46.3101 30.5929 46.2437 30.5279 46.1809C30.5175 46.1779 30.507 46.1743 30.4967 46.1711C30.4465 46.1558 30.3976 46.1399 30.3414 46.1418C30.2801 46.1431 30.2218 46.101 30.1607 46.0539C30.1207 46.0231 30.0792 45.9894 30.0348 45.967C30.0088 45.9538 30.0275 45.9216 30.0475 45.8889C30.0652 45.8594 30.0826 45.8294 30.0699 45.8117C30.0683 45.8101 30.0667 45.8085 30.065 45.8069C30.0562 45.7997 30.0418 45.7938 30.026 45.7883C30.0103 45.7829 29.9934 45.7772 29.981 45.7688C29.9734 45.7635 29.9729 45.7475 29.9752 45.7258C29.9488 45.7021 29.9205 45.6739 29.8863 45.6467C29.8191 45.5919 29.7382 45.5363 29.65 45.4787C29.6467 45.4795 29.6435 45.4809 29.6402 45.4817C29.5869 45.494 29.5318 45.5068 29.4859 45.5119C29.4503 45.5159 29.4334 45.5109 29.4439 45.4992C29.449 45.4937 29.4604 45.486 29.4703 45.4797C29.4812 45.4727 29.4908 45.4667 29.4898 45.4641C29.4888 45.4623 29.4797 45.4635 29.4684 45.4651C29.45 45.4676 29.4263 45.4707 29.4225 45.4631C29.4082 45.4349 29.4016 45.3982 29.3961 45.3625C29.3932 45.3437 29.3904 45.3251 29.3863 45.3078C29.3712 45.2979 29.3556 45.2886 29.3404 45.2785C29.139 45.1447 28.9619 44.9828 28.8756 44.801C28.7883 44.6211 28.7978 44.4496 28.8658 44.3586C28.9773 44.2102 29.0857 44.0916 29.191 43.9875C29.1951 43.9795 29.1994 43.9717 29.2037 43.9641C29.236 43.9078 29.2498 43.824 29.2652 43.7405C29.2687 43.7215 29.272 43.7024 29.276 43.6838C29.3071 43.5396 29.4793 43.518 29.567 43.5129L29.5719 43.5119C29.5929 43.5105 29.6112 43.5052 29.6324 43.4992C29.6829 43.4853 29.7534 43.4651 29.9098 43.4934C29.9481 43.4785 29.9869 43.4656 30.026 43.4543C30.1722 43.4125 30.3168 43.388 30.4889 43.3752L30.9322 43.0803L32.0055 44.2453C32.0341 44.4368 32.0371 44.6295 32.0426 44.8284C32.0445 44.8312 32.0465 44.8342 32.0484 44.8371C32.0878 44.896 32.1374 44.9653 32.1236 45.0325C32.1055 45.1175 32.0807 45.1791 32.0611 45.2346C32.0797 45.4693 32.1251 45.702 32.2242 45.8909C32.2544 45.9489 32.292 46.0057 32.3326 46.053C32.3722 46.099 32.413 46.1376 32.4586 46.1741C32.4998 46.18 32.5422 46.18 32.5807 46.178C32.6358 46.176 32.6836 46.171 32.7105 46.1789C32.7757 46.1988 32.8024 46.2722 32.8277 46.3274C32.8317 46.3362 32.8358 46.3444 32.8394 46.3518C32.8815 46.3602 32.9239 46.3664 32.9644 46.3684C32.9622 46.3778 32.96 46.3876 32.9576 46.3977C32.9273 46.5269 32.9692 46.5472 33.0318 46.5696C33.0589 46.5792 33.0909 46.5902 33.1256 46.6106C33.1478 46.6237 33.1476 46.6757 33.148 46.719C33.1482 46.7316 33.1482 46.7434 33.149 46.7532C33.152 46.7867 33.1726 46.7563 33.1949 46.72C33.2242 46.6729 33.2554 46.6157 33.2711 46.676C33.3281 46.8703 33.3935 46.7514 33.4254 46.6604C33.4356 46.6337 33.4446 46.6092 33.4527 46.5959C33.4788 46.5531 33.5099 46.5977 33.5387 46.6575C33.5613 46.7052 33.6072 46.6568 33.6353 46.594C33.646 46.5704 33.6626 46.5683 33.6822 46.5657C33.7026 46.5629 33.7267 46.5587 33.7486 46.5295C33.8029 46.4558 33.83 46.4182 33.8512 46.3879C33.8572 46.3793 33.8623 46.3708 33.8678 46.3625C33.8851 46.3364 33.9084 46.3123 33.9312 46.2873C33.9587 46.2575 33.9863 46.2256 34.0025 46.1897C34.0784 46.1969 34.1611 46.2064 34.2477 46.2102C34.2923 46.2124 34.3734 46.2975 34.481 46.4485C34.5883 46.5998 34.7124 46.8044 34.8219 47.0256C34.8353 47.0528 34.8473 47.0805 34.86 47.1076C34.8619 47.1086 34.8639 47.1096 34.8658 47.1106C34.7706 46.9137 34.6858 46.7238 34.6246 46.5715C34.5564 46.4014 34.5231 46.2936 34.5318 46.2668C34.5496 46.2134 34.5661 46.1593 34.5855 46.1125C34.6095 46.0555 34.6376 46.0082 34.6793 45.9826C34.7085 45.9648 34.741 45.9516 34.776 45.9416C34.7795 45.9406 34.7831 45.9396 34.7867 45.9387C34.7784 45.872 34.7713 45.8103 34.7769 45.7825C34.7817 45.7597 34.8102 45.7793 34.8346 45.7961C34.8514 45.8078 34.8668 45.8177 34.8707 45.8117C34.8727 45.8085 34.8744 45.8029 34.8766 45.7961C34.8857 45.7674 34.9005 45.7192 34.9654 45.7453C34.9942 45.757 35.0402 45.7873 35.0846 45.8157C35.1484 45.8565 35.2095 45.8934 35.2076 45.8694C35.2043 45.8273 35.2431 45.8354 35.2779 45.842C35.311 45.8484 35.3404 45.8535 35.3238 45.8147C35.3036 45.768 35.3243 45.7768 35.356 45.7893C35.3781 45.798 35.4056 45.8076 35.4273 45.803C35.4523 45.7978 35.4869 45.8148 35.5162 45.8284C35.5574 45.8475 35.5889 45.8606 35.5689 45.803C35.5468 45.7389 35.5398 45.6924 35.568 45.6946C35.5805 45.6953 35.5868 45.6867 35.5934 45.678C35.6021 45.6663 35.6111 45.6546 35.6363 45.6623C35.6572 45.6688 35.6965 45.6978 35.731 45.7239C35.7417 45.7319 35.7521 45.7397 35.7613 45.7463C35.7678 45.7398 35.774 45.733 35.7799 45.7258C35.7759 45.7192 35.7718 45.7118 35.7672 45.7043C35.7437 45.6659 35.7147 45.6184 35.7057 45.5901C35.6914 45.5455 35.7219 45.5541 35.7545 45.5627C35.7797 45.5694 35.8063 45.5762 35.8131 45.5588C35.8157 45.552 35.8124 45.5416 35.8111 45.5295C35.605 45.4062 35.4344 45.2578 35.3326 45.1311C35.2767 45.0617 35.2438 44.9938 35.2223 44.9299C35.1482 44.8768 35.0726 44.8132 35.0113 44.7326C34.9559 44.6572 34.8977 44.5457 34.8463 44.4397C34.7774 44.2923 34.7088 44.1439 34.6422 44.1106C34.5299 44.0575 34.427 43.9165 34.358 43.803C34.2757 43.6774 34.2277 43.5826 34.1422 43.5383C34.0451 43.4907 34.0206 43.4244 33.9732 43.2864C33.9462 43.1969 33.9074 43.0788 33.8609 42.8967C33.8022 42.6664 33.8346 42.4475 33.899 42.2825C33.9942 42.044 34.1155 41.9087 34.2271 41.7112C34.3555 41.493 34.532 41.3558 34.6646 41.3166C34.7284 41.2975 34.7939 41.269 34.858 41.2434C34.9462 41.2083 35.0302 41.1797 35.1158 41.1799C35.1873 41.18 35.2466 41.2145 35.3014 41.2453C35.3183 41.2551 35.3349 41.2647 35.3502 41.2727C35.3998 41.2612 35.4436 41.2518 35.4908 41.2414C35.497 41.2324 35.5035 41.2224 35.5103 41.2121C35.5448 41.1609 35.587 41.0986 35.6461 41.0617C35.7417 41.0033 35.833 41.0174 35.9283 41.0344C36.0035 41.0475 36.0764 41.0628 36.1598 41.0461C36.2166 41.0348 36.278 41.0094 36.3404 40.9846C36.4332 40.9478 36.5226 40.9126 36.5885 40.926C36.6131 40.9311 36.6366 40.9609 36.6588 40.9895C36.6602 40.9913 36.6613 40.9936 36.6627 40.9953C36.8162 40.9623 36.9692 40.9278 37.1207 40.8938C37.1334 40.8855 37.1461 40.8774 37.1588 40.8694C37.2216 40.8296 37.2831 40.7909 37.3219 40.7385C37.3639 40.6818 37.4728 40.6452 37.5865 40.6067C37.6597 40.5815 37.7373 40.5549 37.7975 40.5217C37.8151 40.512 37.8335 40.5151 37.8512 40.5237C37.8729 40.5322 37.8948 40.5467 37.9166 40.5617C37.9576 40.59 37.9991 40.6191 38.0426 40.6106C38.0639 40.6062 38.0879 40.5933 38.1139 40.5793C38.1369 40.5669 38.1616 40.554 38.1871 40.5461C38.2115 40.5389 38.2613 40.5555 38.3316 40.5784C38.3744 40.5925 38.4228 40.6088 38.4723 40.6233C38.6092 40.6099 38.7508 40.6026 38.8961 40.6037C38.9302 40.5807 38.9625 40.5495 38.9908 40.508C39.0112 40.4783 39.0303 40.4415 39.0504 40.4045C39.0779 40.3541 39.1074 40.302 39.1432 40.2629C39.1701 40.2324 39.2017 40.2241 39.2174 40.2414ZM36.9039 46.6682C36.8548 46.6836 36.8084 46.7017 36.7662 46.7239C36.7288 46.7436 36.6943 46.766 36.6637 46.7932C36.6353 46.8183 36.6088 46.8461 36.5846 46.8762C36.5843 46.9098 36.5884 46.9467 36.5914 46.9807C36.5956 47.0283 36.599 47.0711 36.5904 47.093C36.5697 47.1459 36.4975 47.1484 36.4449 47.1496C36.4365 47.1498 36.4286 47.1502 36.4215 47.1506C36.4055 47.1837 36.3894 47.2179 36.3736 47.2522C36.366 47.246 36.3582 47.2393 36.3502 47.2326C36.2487 47.1486 36.2233 47.1706 36.1812 47.2053C36.1629 47.2204 36.1406 47.2376 36.109 47.2492C36.0885 47.2561 36.0504 47.221 36.0191 47.1926C36.01 47.1843 36.001 47.1772 35.9937 47.1711C35.9685 47.1503 35.9814 47.183 35.9967 47.2219C36.0165 47.2723 36.0393 47.333 35.9889 47.2991C35.8289 47.1903 35.8757 47.3065 35.9088 47.3967C35.9185 47.423 35.9268 47.4472 35.9293 47.4621C35.9372 47.5105 35.8882 47.4907 35.8365 47.4524C35.7957 47.4221 35.7932 47.4808 35.8033 47.5461C35.8071 47.5707 35.7952 47.579 35.7818 47.5881C35.7681 47.5975 35.7518 47.6084 35.7477 47.6409C35.7368 47.7238 35.7283 47.7655 35.7213 47.7991C35.7193 47.8086 35.7173 47.8174 35.7154 47.8264C35.7096 47.8549 35.6977 47.8825 35.6852 47.9104C35.6701 47.9438 35.6552 47.9781 35.649 48.0149C35.6315 48.0156 35.6133 48.0121 35.5953 48.0119C35.5559 48.1864 35.5219 48.3621 35.4908 48.5354C35.4918 48.5459 35.4922 48.5563 35.4928 48.5666C35.4975 48.644 35.538 48.7287 35.5787 48.8127C35.588 48.8319 35.5969 48.8516 35.606 48.8703C35.675 49.0136 35.5616 49.1933 35.5025 49.2951L35.4996 49.3C35.4856 49.3239 35.4768 49.3481 35.4664 49.3762C35.4419 49.4437 35.4076 49.5332 35.2877 49.7082C35.2765 49.7649 35.2645 49.8208 35.2525 49.8762C35.1225 50.476 35.0073 51.0314 35.0348 51.4758C35.037 51.4807 35.0393 51.4856 35.0416 51.4905C35.0877 51.5893 35.1527 51.684 35.1568 51.7668C35.162 51.8738 35.1673 51.9572 35.1764 52.0295C35.3301 52.334 35.7133 52.6132 36.1988 52.7385C36.2358 52.7483 36.274 52.7584 36.3131 52.7668C36.4413 52.7941 36.5587 52.8115 36.6744 52.8205C36.8256 52.832 36.9553 52.8298 37.0914 52.8147C37.1653 52.7848 37.23 52.7475 37.2867 52.7102C37.3639 52.658 37.4207 52.6077 37.4684 52.5813C37.5799 52.5195 37.7065 52.5023 37.8043 52.47C37.8203 52.4647 37.8355 52.4589 37.8492 52.4534C37.9008 52.3916 37.9447 52.3225 37.984 52.2453C37.995 52.2469 38.0073 52.2487 38.0191 52.2502C38.167 52.2679 38.2314 52.1761 38.3092 52.0119C38.3434 51.9392 38.38 51.8522 38.4293 51.7434C38.4609 51.6732 38.5218 51.6511 38.5719 51.6311C38.5866 51.6252 38.6002 51.619 38.6119 51.6125C38.6519 51.5904 38.6291 51.5453 38.6012 51.4953C38.5652 51.4297 38.5209 51.3539 38.5963 51.2834C38.8364 51.0549 38.7367 50.8956 38.6617 50.7873C38.6396 50.7548 38.6192 50.7256 38.61 50.6975C38.58 50.6068 38.6421 50.4924 38.7154 50.4075C38.7735 50.3404 38.7474 50.1841 38.7027 50.0608C38.6859 50.0141 38.6929 49.9552 38.7018 49.884C38.7108 49.8106 38.7214 49.7271 38.7086 49.6311C38.6758 49.3887 38.6643 49.2525 38.6559 49.1448C38.6535 49.114 38.6519 49.0849 38.65 49.0549C38.644 48.9598 38.645 48.8485 38.6519 48.7239C38.6594 48.5782 38.6745 48.4227 38.6793 48.2961C38.7065 48.2261 38.7353 48.1544 38.7672 48.0813C38.7549 48.021 38.7432 47.9752 38.7193 47.9797C38.6638 47.99 38.6337 47.9389 38.609 47.8938C38.5853 47.8508 38.5659 47.8132 38.5269 47.8371C38.4801 47.8662 38.4714 47.838 38.4605 47.7961C38.453 47.767 38.444 47.7315 38.4195 47.7034C38.3914 47.6709 38.3861 47.626 38.3824 47.5881C38.3771 47.5345 38.3746 47.4947 38.3102 47.5188C38.2387 47.5453 38.1773 47.5504 38.1607 47.5129C38.1532 47.4958 38.1374 47.4858 38.1207 47.4758C38.0986 47.4626 38.0749 47.4483 38.0699 47.4153C38.0659 47.3879 38.0836 47.3399 38.0992 47.2981C38.104 47.2852 38.1091 47.273 38.1129 47.2619C38.1004 47.2525 38.0877 47.2426 38.0748 47.2336C38.0679 47.2379 38.0601 47.2433 38.0523 47.2483C38.0132 47.2731 37.9645 47.3026 37.9303 47.3088C37.8764 47.3185 37.8705 47.2788 37.8658 47.2366C37.862 47.2034 37.8589 47.1684 37.8316 47.1545C37.8131 47.1452 37.7832 47.1444 37.7535 47.1428C37.7092 47.1404 37.6651 47.1368 37.6607 47.1076C37.6592 47.0966 37.6751 47.0696 37.691 47.0432L37.6939 47.0373C37.6379 47.0138 37.5807 46.9906 37.5221 46.967C37.513 46.9687 37.5036 46.9704 37.4947 46.9719C37.4513 46.9791 37.409 46.9857 37.3609 47.008C37.3088 47.0323 37.2558 47.0212 37.1998 47.008C37.1633 46.9995 37.1255 46.9899 37.0855 46.9895C37.0621 46.9893 37.0762 46.9587 37.0914 46.927C37.1055 46.8975 37.1201 46.867 37.1051 46.8596C37.0973 46.856 37.0813 46.8579 37.065 46.8596C37.0508 46.8611 37.0355 46.8625 37.024 46.8606C37.0134 46.8586 37.0154 46.8333 37.0182 46.802C37.0198 46.7826 37.0216 46.7603 37.0211 46.7395C36.981 46.717 36.9421 46.693 36.9039 46.6682ZM30.9088 46.051C30.8988 46.048 30.8907 46.0546 30.8834 46.0647L31.0064 46.135C30.9972 46.1247 30.984 46.1106 30.9703 46.0969C30.9498 46.0767 30.9267 46.0569 30.9088 46.051ZM30.6812 45.9485L30.7662 45.9963C30.7578 45.9762 30.7496 45.9553 30.7408 45.9358C30.7214 45.9414 30.7012 45.9448 30.6812 45.9485ZM29.8189 45.4534L29.9049 45.5032C29.8913 45.4857 29.8772 45.4683 29.8639 45.4504C29.8503 45.4493 29.8354 45.4525 29.8189 45.4534ZM48.273 24.053C50.913 22.4573 54.206 22.0485 57.1246 23.0393C57.1618 23.0498 57.1998 23.0612 57.2379 23.0725C57.9792 23.2829 58.8638 23.6919 59.3512 24.0539C59.9744 24.5073 60.3411 24.8905 60.6187 25.2033C62.3544 26.9314 63.2037 29.245 63.5035 31.4836C63.5816 32.0576 63.6241 32.5751 63.648 33.1565C63.6543 33.3145 63.6577 33.4711 63.6578 33.6262C63.6583 34.2851 63.5999 34.9626 63.4723 35.6272C63.4186 36.0193 63.3506 36.3846 63.2652 36.7307C63.1485 37.2081 63.0005 37.636 62.8473 37.967C62.4799 38.7781 61.8447 39.5726 61.3111 40.0852C61.2247 40.1697 61.1416 40.2477 61.0641 40.3186C60.659 40.7425 60.2156 41.1279 59.7418 41.4719C59.7041 41.4859 59.6654 41.4995 59.6266 41.5129C59.1403 41.677 58.6301 41.9963 57.7535 42.3586C57.372 42.5137 56.9201 42.6729 56.3736 42.801C56.0212 42.8823 55.8284 42.8651 55.6734 42.8518C55.6277 42.8477 55.5844 42.8432 55.5416 42.841C55.395 42.8338 55.2518 42.8901 55.0787 42.9524C54.8551 43.0327 54.5776 43.1251 54.2037 43.0832C53.0225 42.9351 52.516 42.9514 52.1041 42.9866C51.9851 42.9942 51.8764 42.9985 51.7672 42.9905C51.4118 42.9664 50.9284 42.7937 50.5904 42.6135C50.32 42.4753 49.748 42.3003 49.3102 42.1409C49.1434 42.0816 48.9356 41.9715 48.6969 41.8274C48.4491 41.6778 48.1724 41.4941 47.8727 41.2971C47.1173 40.7926 46.7647 40.4397 46.4879 40.1721C46.409 40.0937 46.3369 40.0187 46.2652 39.9426C46.0341 39.6968 45.7836 39.3915 45.5416 39.0481C45.2554 38.6445 45.0028 38.2154 44.8141 37.8801C44.4265 36.9864 44.1654 36.0148 44.0211 35.094C43.9415 34.5968 43.991 34.1332 44.1363 33.7766C44.2823 33.4203 44.5095 33.2127 44.7555 33.1955C45.0021 33.1777 45.2511 33.3469 45.4654 33.633C45.6801 33.9213 45.8422 34.2912 45.9459 34.7082C46.1451 35.5106 46.4447 36.3205 46.8209 37.0266C47.2867 37.9078 47.8847 38.6856 48.5963 39.3342C49.093 39.7877 49.6523 40.1756 50.2555 40.4846C50.3177 40.5165 50.3809 40.5472 50.4439 40.5774C50.9874 40.7616 51.5454 40.8741 51.9371 40.9436C52.26 41.0016 52.4912 41.07 52.693 41.1252C52.8316 41.1628 52.9565 41.1932 53.0846 41.2014C53.1534 41.2057 53.2482 41.2089 53.3619 41.2102C53.8271 41.2199 54.6108 41.1687 55.3307 41.094C55.6506 41.0637 56.0273 41.0281 56.3863 40.969C56.8997 40.887 57.3749 40.7522 57.5875 40.6282C57.9611 40.4134 58.4012 40.1962 58.774 39.97C59.1296 39.7562 59.4236 39.5379 59.5494 39.3703C59.6992 39.1698 59.8619 39.0421 60.0943 38.8342C60.2548 38.689 60.4484 38.5056 60.6695 38.22C60.9245 37.8876 61.1001 37.6538 61.2486 37.4436C61.4518 37.1523 61.5982 36.9133 61.6871 36.5198C61.7847 36.0829 61.8637 35.6299 61.9527 35.2756C61.9943 35.1116 62.0232 34.9247 62.0455 34.7297C62.0754 34.473 62.0941 34.1828 62.1246 33.9397C62.1502 33.734 62.1973 33.5588 62.2359 33.3996C62.2479 33.3501 62.2589 33.3018 62.2682 33.2551C62.2676 33.2422 62.2668 33.229 62.2662 33.216C62.2584 33.0494 62.2485 32.8851 62.235 32.7239C62.2251 32.6962 62.214 32.667 62.2027 32.6369C62.1459 32.4863 62.0744 32.305 62.0201 32.0852C61.932 31.7226 61.9039 31.3961 61.8648 31.0686C61.8354 30.8182 61.7894 30.5251 61.6959 30.2336C61.6321 30.0342 61.5393 29.8113 61.4371 29.5901C61.2869 29.2644 61.126 28.972 61.0328 28.7424C60.9991 28.6586 60.9902 28.5767 60.981 28.4953V28.4934C60.9804 28.488 60.9797 28.4822 60.9791 28.4768C60.6868 27.9747 60.3371 27.5026 59.9391 27.0842C59.9009 27.0519 59.8622 27.0198 59.8238 26.9885C59.637 26.8356 59.4403 26.6929 59.2965 26.6291C59.1418 26.5594 58.8115 26.3112 58.443 26.1018C58.2007 25.962 57.9409 25.8355 57.7213 25.7551C57.5921 25.7074 57.4896 25.623 57.3805 25.5383C57.2788 25.4595 57.1711 25.3806 57.0357 25.3362C56.9681 25.314 56.8917 25.2995 56.8102 25.2854C56.7382 25.2729 56.6617 25.2609 56.5836 25.2444C56.511 25.229 56.3588 25.1639 56.1578 25.091C56.0337 25.046 55.8908 24.9973 55.7379 24.9553C55.3245 24.8953 54.9053 24.8675 54.4869 24.8694C54.3987 24.8933 54.3221 24.9273 54.2623 24.9719C54.2194 25.004 54.1826 25.0424 54.1461 25.0823C54.0964 25.1365 54.046 25.1933 53.9771 25.2395C53.9233 25.2755 53.8598 25.2919 53.816 25.2795C53.7956 25.2737 53.7789 25.261 53.7643 25.2502C53.7477 25.2381 53.7328 25.2275 53.7154 25.2287C53.7027 25.2297 53.69 25.2399 53.6744 25.2522C53.6495 25.2717 53.617 25.2964 53.566 25.301C53.3762 25.318 53.1606 25.3336 52.9488 25.3576C52.7131 25.384 52.4832 25.4212 52.3043 25.469C52.104 25.5218 51.8101 25.5626 51.5162 25.6223C51.3113 25.6635 51.1062 25.7128 50.9361 25.7707C50.7693 25.8274 50.6088 25.9192 50.4576 26.0119C50.2761 26.1231 50.1083 26.2361 49.9439 26.2942C49.9106 26.3059 49.8538 26.2953 49.7828 26.2824C49.7325 26.2734 49.6741 26.2632 49.6119 26.26C49.4205 26.3762 49.2338 26.4987 49.0514 26.6272C49.048 26.6359 49.044 26.6455 49.0406 26.6545C48.9617 26.8603 48.8727 27.1315 48.5553 27.2834C48.4741 27.3226 48.4021 27.3263 48.3375 27.3303C48.2743 27.3343 48.2171 27.3385 48.1656 27.3782C48.1071 27.4234 48.0634 27.5029 48.0182 27.5891C47.9544 27.7104 47.8887 27.8454 47.7643 27.9309C47.7558 27.9367 47.7463 27.9428 47.7369 27.9494C47.6467 28.0126 47.516 28.1076 47.3541 28.1848C47.0528 28.5497 46.7848 28.9422 46.5562 29.3576C46.1731 30.0544 45.903 30.8129 45.7594 31.6184C45.6887 32.0076 45.5666 32.3886 45.3912 32.6838C45.2155 32.981 44.9976 33.1777 44.7555 33.1955C44.5146 33.2138 44.2629 33.046 44.0728 32.7112C43.8832 32.3817 43.7801 31.8982 43.8092 31.4016C43.8548 30.5942 44.0078 29.7723 44.2711 28.9914C44.2823 28.9488 44.294 28.9057 44.3062 28.8635C44.3978 28.5492 44.4629 28.2502 44.5455 27.9475C44.5646 27.8778 44.5848 27.8079 44.606 27.7385C44.7568 27.2026 45.4079 26.3676 45.815 25.9709C45.8222 25.9635 45.8293 25.9559 45.8365 25.9485C45.9313 25.8522 46.0194 25.7601 46.1246 25.6545C46.3778 25.4083 46.7185 25.0542 47.5592 24.5305C47.7904 24.3605 48.0286 24.2013 48.273 24.053ZM38.648 42.9475C38.6844 42.9898 38.718 43.0225 38.7447 43.0354C38.8293 43.0846 38.8314 43.0517 38.7877 43.0207C38.7565 42.9968 38.7077 42.9729 38.648 42.9475ZM18.942 24.4114C21.496 22.9592 24.6706 22.4864 27.5299 23.5207C27.5663 23.5319 27.6039 23.5429 27.6412 23.5549C28.3641 23.7764 29.2207 24.2129 29.6812 24.594C30.2727 25.0726 30.5973 25.4627 30.856 25.7951C32.4252 27.5908 33.0466 29.9057 33.2262 32.0461C33.2521 32.3503 33.2708 32.6624 33.2818 32.9826C33.2953 33.377 33.2883 33.7556 33.2603 34.1389C33.2123 34.7943 33.1001 35.4407 32.9225 36.0666C32.8369 36.4455 32.7402 36.7936 32.6295 37.1184C32.4736 37.5753 32.2986 37.9658 32.1217 38.2756C31.7028 39.0223 31.0312 39.7378 30.4889 40.1926C30.4005 40.268 30.3157 40.3374 30.2369 40.4006C29.8243 40.7823 29.3801 41.1298 28.9117 41.4397C28.8747 41.4512 28.8365 41.4619 28.7984 41.4729C28.3225 41.6059 27.8217 41.8928 26.9703 42.22C26.5999 42.36 26.1616 42.504 25.6334 42.6194C25.2923 42.6927 25.106 42.6724 24.9566 42.6565C24.9126 42.6516 24.8711 42.6465 24.8297 42.6438C24.6879 42.6342 24.5488 42.6891 24.3814 42.7492C24.1655 42.8267 23.897 42.9148 23.5357 42.8703C22.3947 42.7153 21.9033 42.7343 21.5035 42.7688C21.3878 42.7765 21.2819 42.7808 21.1754 42.7727C20.8292 42.7482 20.363 42.576 20.0357 42.3948C19.7747 42.256 19.2196 42.0785 18.7945 41.9143C18.6342 41.8541 18.433 41.7415 18.2037 41.594C17.9647 41.4402 17.7024 41.2539 17.4146 41.0491C16.6955 40.5288 16.3701 40.1652 16.1119 39.8869C16.0386 39.8055 15.9711 39.7278 15.9049 39.6487C15.6969 39.4009 15.4682 39.0848 15.2535 38.7317C15.0076 38.3333 14.7817 37.8736 14.6285 37.55C14.3141 36.6425 14.1422 35.6983 14.0709 34.7951C14.031 34.3036 14.1172 33.8698 14.2887 33.5334C14.4608 33.2001 14.7014 33.0152 14.9478 33.0159C15.1951 33.0158 15.4313 33.1972 15.6236 33.4885C15.8163 33.7841 15.949 34.1438 16.0191 34.5578C16.1533 35.3442 16.3792 36.137 16.692 36.844C17.0758 37.7175 17.5956 38.4916 18.2398 39.136C18.6878 39.5853 19.2067 39.9714 19.7721 40.2766C19.8304 40.3081 19.8895 40.3395 19.9488 40.3694C20.4633 40.5515 20.9954 40.6606 21.3687 40.7287C21.6777 40.7859 21.8981 40.8543 22.0914 40.9094C22.2241 40.9469 22.3447 40.9774 22.4674 40.9856C22.5333 40.99 22.6239 40.9928 22.733 40.9944C23.1815 41.005 23.9347 40.9577 24.6334 40.8948C24.9428 40.8697 25.3096 40.8416 25.6588 40.7922C26.159 40.7236 26.6248 40.6072 26.8346 40.4924C27.2031 40.2937 27.6387 40.0993 28.0113 39.8967C28.3665 39.7053 28.6636 39.5093 28.7945 39.3528C28.9502 39.1656 29.1165 39.0515 29.356 38.8655C29.5212 38.7359 29.722 38.5708 29.9576 38.3108C30.2268 38.0118 30.4211 37.7959 30.5797 37.6096C30.8011 37.3456 30.9625 37.1286 31.0797 36.758C31.2113 36.3409 31.3212 35.9201 31.4381 35.5852C31.4904 35.4371 31.5344 35.2614 31.5719 35.0744C31.6224 34.8232 31.659 34.5682 31.7086 34.3284C31.7493 34.1327 31.8089 33.9622 31.858 33.8215C31.8734 33.7765 31.8885 33.7323 31.901 33.6897C31.9054 33.5286 31.9047 33.3651 31.899 33.1994C31.8907 33.1729 31.8815 33.1445 31.8717 33.1155C31.864 33.0927 31.8555 33.0686 31.8473 33.0442C31.802 32.9053 31.7508 32.743 31.7135 32.5539C31.6428 32.1974 31.6375 31.9113 31.6148 31.5666C31.5977 31.3062 31.5748 31.0481 31.5016 30.7571C31.4497 30.5502 31.373 30.3254 31.2906 30.1135C31.1727 29.8094 31.0241 29.4812 30.9566 29.2688C30.9309 29.1871 30.9296 29.1085 30.9283 29.0305V29.0139C30.6753 28.4942 30.375 28.0222 30.0289 27.6028C29.9937 27.5685 29.9579 27.5344 29.9225 27.5012C29.7491 27.3383 29.5747 27.1965 29.441 27.1291C29.2917 27.0497 29.001 26.8024 28.6588 26.5842C28.4365 26.4409 28.1982 26.3127 27.9918 26.2287C27.8718 26.1799 27.7804 26.095 27.6812 26.01C27.5885 25.9306 27.4887 25.8512 27.3619 25.8059C27.2985 25.7833 27.226 25.7678 27.149 25.7532C27.0813 25.7403 27.0096 25.728 26.9361 25.7112C26.8677 25.6954 26.7259 25.6293 26.5367 25.5559C26.4196 25.5104 26.2851 25.4625 26.1402 25.4201C25.7464 25.3589 25.3476 25.3309 24.9469 25.3323C24.8627 25.3561 24.7902 25.3902 24.733 25.4348C24.6919 25.4668 24.6568 25.5054 24.6217 25.5451C24.574 25.5993 24.5256 25.6554 24.4596 25.7014C24.4077 25.7374 24.3471 25.7531 24.3053 25.7405C24.286 25.7345 24.2704 25.7229 24.2564 25.7121C24.2405 25.6999 24.2262 25.6885 24.2096 25.6897C24.1975 25.6906 24.1852 25.701 24.1705 25.7131C24.1468 25.7326 24.1158 25.7575 24.067 25.7619C23.8854 25.7782 23.6772 25.794 23.4742 25.8166C23.2482 25.8415 23.025 25.8763 22.8531 25.9221C22.6603 25.9729 22.3736 26.0108 22.0885 26.0657C21.8896 26.1035 21.6896 26.1503 21.524 26.2043C21.3612 26.2573 21.2039 26.3444 21.0553 26.4328C20.8765 26.5389 20.7101 26.646 20.5475 26.6985C20.5146 26.7091 20.4597 26.6961 20.3902 26.6809C20.341 26.6701 20.2841 26.6581 20.2232 26.6526C20.0334 26.761 19.8464 26.8753 19.6637 26.9944C19.6601 27.0029 19.6565 27.0119 19.6529 27.0207C19.6245 27.0894 19.5933 27.1654 19.5533 27.2414C19.7686 27.2345 20.0846 27.2635 20.3365 27.4104C20.4669 27.4843 20.6011 27.6021 20.7105 27.7229C20.8696 27.8958 20.9765 28.0714 21.0631 28.1223C21.2174 28.212 21.3312 28.3858 21.4078 28.5403C21.4821 28.6878 21.5286 28.8178 21.6012 28.8694C21.6886 28.9331 21.7045 29.016 21.7193 29.1369C21.7299 29.2228 21.7376 29.3199 21.7613 29.4504C21.7876 29.5994 21.7701 29.7074 21.7535 29.7981C21.7286 29.9206 21.7058 30.0134 21.7672 30.1399C21.8353 30.2836 21.8683 30.4432 21.8375 30.5608C21.8236 30.6147 21.8192 30.6778 21.8131 30.7395C21.8055 30.817 21.7949 30.9001 21.7623 30.9729C21.76 30.9778 21.757 30.9827 21.7545 30.9875C21.7237 31.046 21.666 31.0863 21.6148 31.1203C21.599 31.1309 21.5836 31.1407 21.5699 31.1506C21.5597 31.1974 21.549 31.2445 21.5387 31.2903C21.5442 31.2995 21.5508 31.3093 21.5572 31.3196C21.5897 31.3701 21.6268 31.4419 21.6334 31.5149C21.6429 31.6326 21.589 31.7095 21.5269 31.7981C21.4786 31.8668 21.4275 31.9353 21.399 32.0237C21.3806 32.0817 21.3655 32.1629 21.3502 32.2385C21.3272 32.3518 21.3005 32.461 21.2428 32.5237C21.2217 32.5463 21.1817 32.5524 21.1432 32.5578L21.1353 32.5588C21.0575 32.7283 20.9593 32.9074 20.8404 33.0784C20.8341 33.0967 20.8267 33.1149 20.8199 33.133C20.7862 33.2228 20.7498 33.3076 20.7379 33.3869C20.7254 33.4726 20.6255 33.6035 20.4879 33.7375C20.4011 33.8235 20.3025 33.9085 20.2203 33.9846C20.1724 34.0291 20.1052 34.0268 20.0367 34.0217C19.972 34.0172 19.9074 34.0101 19.8512 34.0383C19.823 34.0525 19.7947 34.0748 19.7643 34.0989C19.7378 34.12 19.7074 34.1431 19.6744 34.1604C19.6435 34.1763 19.5652 34.1798 19.4684 34.177C19.4088 34.1752 19.3398 34.1711 19.2701 34.1672C19.0917 34.2087 18.9052 34.2312 18.7203 34.2336C18.6799 34.2576 18.6432 34.2895 18.6109 34.3313C18.5877 34.3613 18.5655 34.3978 18.5426 34.4348C18.5114 34.4851 18.4779 34.5372 18.4352 34.5754C18.4018 34.6051 18.3657 34.6124 18.3463 34.594C18.3373 34.5854 18.3316 34.5715 18.3268 34.5588C18.3212 34.5443 18.3161 34.531 18.3072 34.5295C18.3009 34.5289 18.2921 34.537 18.2818 34.5461C18.2652 34.5609 18.2433 34.5796 18.2174 34.5744C18.1202 34.5552 18.014 34.5184 17.9137 34.4768C17.802 34.4307 17.6979 34.3796 17.6109 34.3479C17.5128 34.3125 17.3955 34.2152 17.2906 34.1116C17.2167 34.0391 17.1489 33.9638 17.0865 33.9065C17.0255 33.8505 16.9463 33.8133 16.8707 33.7737C16.7802 33.7265 16.6931 33.6741 16.6568 33.595C16.6495 33.5789 16.661 33.538 16.6773 33.4875C16.6889 33.4517 16.7031 33.4107 16.7135 33.3703C16.6464 33.2981 16.5834 33.2213 16.526 33.1418C16.52 33.1422 16.5137 33.1425 16.5074 33.1428L16.3922 33.1448C16.2734 33.1377 16.1556 33.0969 16.1529 32.9514C16.1525 32.9027 16.1793 32.8569 16.2037 32.8166C16.2276 32.7772 16.2493 32.7427 16.2428 32.7141C16.235 32.6815 16.1959 32.6584 16.1529 32.6321C16.0926 32.5956 16.0248 32.5492 16.0348 32.4709C16.0355 32.4658 16.036 32.46 16.0367 32.4543C16.044 32.3987 16.0566 32.3164 16.1129 32.2239C16.0709 32.0406 16.0498 31.8535 16.0475 31.6721C15.9457 32.0058 15.8029 32.3268 15.6197 32.5744C15.4217 32.843 15.1908 33.0155 14.9478 33.0159C14.7064 33.0167 14.4676 32.8381 14.3043 32.4973C14.1407 32.1619 14.0778 31.6775 14.15 31.1994C14.2676 30.4133 14.4933 29.6405 14.818 28.9094C14.8323 28.8697 14.8466 28.8295 14.8619 28.7903C14.9759 28.4985 15.0638 28.2146 15.1656 27.9309C15.189 27.8658 15.2135 27.8004 15.2389 27.7356C15.4236 27.2343 16.1044 26.4889 16.5143 26.136C16.5216 26.1293 16.5293 26.1221 16.5367 26.1155C16.6327 26.0296 16.722 25.9474 16.8277 25.8528C17.082 25.6316 17.4243 25.3149 18.2467 24.8469C18.4728 24.6926 18.7046 24.547 18.942 24.4114ZM35.5152 42.6565C35.4303 42.6808 35.3562 42.7081 35.3092 42.7366C35.2861 42.7749 35.2855 42.814 35.3141 42.8274C35.3507 42.8509 35.4537 42.7957 35.5006 42.6975C35.5073 42.6845 35.5103 42.6698 35.5152 42.6565ZM35.483 42.4153C35.483 42.4252 35.4845 42.4368 35.4859 42.4465C35.5015 42.4596 35.5207 42.4725 35.5406 42.4885C35.5379 42.4476 35.5308 42.4157 35.5211 42.4016C35.4977 42.3621 35.4827 42.3855 35.483 42.4153ZM58.5846 32.927C58.5863 32.9358 58.5885 32.9426 58.5885 32.9426C58.5885 32.9426 58.5867 32.933 58.5846 32.9221L58.5836 32.9192C58.5828 32.9145 58.5823 32.9103 58.5816 32.9065C58.579 32.8931 58.5768 32.8801 58.5768 32.8801C58.5776 32.8776 58.5836 32.8837 58.5934 32.8879C58.6043 32.8928 58.6204 32.8943 58.6285 32.883C58.6376 32.871 58.6726 32.8927 58.7154 32.9075C58.7452 32.9179 58.7783 32.9249 58.8014 32.9211C58.8241 32.9174 58.8324 32.8878 58.8385 32.8596C58.8461 32.8256 58.8519 32.7932 58.8893 32.801C58.8968 32.8027 58.9257 32.8268 58.9625 32.8567C58.9887 32.8779 59.019 32.9024 59.0484 32.9231C59.0737 32.9001 59.1009 32.876 59.1275 32.8528C59.1248 32.8483 59.1216 32.8437 59.1187 32.8391C59.0541 32.7341 58.955 32.6007 59.0611 32.6262C59.0884 32.6323 59.1288 32.6552 59.1656 32.675C59.2018 32.6946 59.2351 32.7118 59.2477 32.7082C59.2614 32.7038 59.2512 32.6768 59.2389 32.6487C59.2216 32.6087 59.2003 32.5668 59.2457 32.5705C59.2487 32.5708 59.2521 32.5703 59.2555 32.5705C59.2882 32.5727 59.3367 32.5753 59.4215 32.5979C59.4831 32.5431 59.5447 32.4861 59.6041 32.427C59.7028 32.329 59.7949 32.2256 59.8687 32.1194C59.9049 32.068 60.0232 32.0327 60.2066 31.9885C60.3903 31.9466 60.6227 31.898 60.8648 31.8869C61.1064 31.876 61.3444 31.9137 61.524 32.0246C61.7034 32.1351 61.8032 32.3031 61.8014 32.4631C61.7986 32.7231 61.766 32.9728 61.7096 33.2131C61.7093 33.2268 61.7093 33.2408 61.7086 33.2541C61.703 33.3539 61.7268 33.4628 61.7467 33.5744C61.7513 33.5998 61.7566 33.6252 61.7603 33.6506C61.7906 33.8478 61.5848 34.09 61.4654 34.2063C61.4633 34.2085 61.4607 34.2109 61.4586 34.2131C61.4307 34.2412 61.4071 34.2697 61.3795 34.303C61.3124 34.3817 61.2222 34.494 60.9664 34.6526C60.9095 34.7147 60.8483 34.7765 60.7848 34.8342C60.1471 35.4265 58.9072 35.9818 57.6969 35.3645C57.6823 35.3591 57.6669 35.3528 57.6519 35.3469C57.3568 35.2354 57.0546 35.0235 56.9312 34.841C56.781 34.6188 56.7243 34.455 56.6852 34.3264C56.349 33.6686 56.2783 33.0857 56.19 32.5315C56.185 32.4977 56.1804 32.4633 56.1754 32.4289C56.1503 32.2626 56.1342 32.1055 56.1266 31.9348C56.1183 31.7478 56.1238 31.5511 56.1461 31.3557C56.1381 31.2384 56.131 31.1255 56.1314 31.0158C56.1313 30.8642 56.1449 30.724 56.1773 30.6164C56.254 30.3547 56.4539 30.1085 56.6158 29.9553C56.6421 29.9298 56.6677 29.9064 56.691 29.885C56.7906 29.7404 56.9028 29.6028 57.0269 29.4748C57.0422 29.4746 57.0581 29.4745 57.0738 29.4748C57.2706 29.4806 57.4041 29.3739 57.648 29.2395C57.7541 29.182 57.8813 29.1215 58.0406 29.0744C58.1436 29.0444 58.2112 29.0784 58.2643 29.1067C58.2798 29.115 58.2943 29.1233 58.3082 29.1291C58.3558 29.1491 58.3885 29.1061 58.4312 29.0559C58.4856 28.9909 58.562 28.913 58.6793 28.9573C59.0416 29.1043 59.1785 29.0085 59.3189 28.9299C59.3585 28.9078 59.3957 28.8885 59.4322 28.8811C59.5512 28.8564 59.7029 28.941 59.7955 29.0383C59.8687 29.1132 60.0584 29.141 60.2174 29.1633C60.2773 29.1709 60.3463 29.2118 60.4195 29.2619C60.4958 29.3139 60.5842 29.3822 60.6852 29.4387C60.9463 29.5905 61.0622 29.6987 61.1588 29.7864C61.185 29.8105 61.2091 29.8341 61.233 29.8576C61.3084 29.931 61.3931 30.038 61.4654 30.1408C61.5551 30.2687 61.6346 30.4028 61.7008 30.5002C61.7758 30.7967 61.7988 31.0756 61.7994 31.344C61.8004 31.4903 61.6998 31.6168 61.524 31.7199C61.3478 31.8213 61.1113 31.8769 60.8648 31.8869C60.618 31.8971 60.3778 31.8638 60.191 31.8127C60.0044 31.7594 59.8873 31.7022 59.856 31.6233C59.7949 31.4729 59.7228 31.3438 59.649 31.2356C59.5596 31.1056 59.474 31.018 59.4088 30.9465C59.3623 30.8959 59.3204 30.8563 59.2721 30.8176C59.2673 30.8138 59.2623 30.8096 59.2574 30.8059C59.1837 30.8368 59.1262 30.8772 59.0914 30.8899C59.0631 30.9003 59.0488 30.8666 59.0318 30.8371C59.0204 30.8169 59.008 30.7988 58.9947 30.801C58.9877 30.8022 58.9779 30.8053 58.9664 30.8098C58.917 30.8281 58.8429 30.8662 58.7447 30.8323C58.7008 30.8169 58.6385 30.7822 58.5728 30.7561C58.4799 30.718 58.3796 30.6984 58.358 30.7356C58.3209 30.7998 58.2454 30.817 58.1764 30.841C58.1108 30.8635 58.0535 30.891 58.0621 30.9426C58.0728 31.0038 58.0389 31.0121 57.9859 31.0324C57.9495 31.0466 57.9045 31.0664 57.8658 31.1106C57.8219 31.1607 57.7704 31.1875 57.7262 31.2141C57.665 31.25 57.6174 31.2882 57.6519 31.3694C57.6904 31.4598 57.7153 31.5371 57.6871 31.593C57.6744 31.6188 57.6727 31.6506 57.6725 31.6828C57.6721 31.7256 57.674 31.7729 57.6519 31.8147C57.6336 31.8498 57.5869 31.8828 57.5465 31.9143C57.5339 31.924 57.5216 31.9332 57.5113 31.9426C57.5146 31.9754 57.5194 32.0048 57.525 32.0364C57.5332 32.0404 57.542 32.0448 57.5514 32.0491C57.5991 32.0708 57.6584 32.0952 57.693 32.1311C57.7506 32.2047 57.7392 32.2786 57.7281 32.3547C57.7193 32.4132 57.7113 32.4757 57.7379 32.5403C57.7557 32.5832 57.789 32.6264 57.8219 32.6662C57.8704 32.7243 57.9238 32.7878 57.9234 32.8371C57.9234 32.8562 57.9007 32.8814 57.8785 32.9065C57.8771 32.908 57.875 32.9098 57.8736 32.9114C57.9398 33.0147 58.0092 33.1014 58.0855 33.1799C58.0964 33.1836 58.1072 33.1874 58.1178 33.1907C58.1702 33.2066 58.2214 33.2179 58.276 33.2073C58.3349 33.1964 58.3926 33.2203 58.4469 33.2287C58.4814 33.2335 58.5147 33.2328 58.5435 33.217C58.5603 33.2077 58.5452 33.2346 58.5328 33.2649C58.5209 33.2925 58.5112 33.322 58.5201 33.3196C58.5248 33.3179 58.5339 33.3081 58.5426 33.2971C58.5502 33.2874 58.5583 33.2772 58.5631 33.2707C58.5676 33.2647 58.5622 33.281 58.5602 33.303C58.5589 33.3164 58.5589 33.3319 58.5611 33.345C58.5782 33.329 58.5926 33.3121 58.6109 33.2942C58.6137 33.2668 58.6142 33.231 58.6119 33.1858C58.6103 33.1533 58.6071 33.114 58.6031 33.0744C58.598 33.0229 58.5912 32.97 58.5846 32.927ZM19.5494 29.1223C19.4232 28.9245 19.3283 29.0618 19.3023 29.1594C19.2927 29.1884 19.2853 29.215 19.276 29.2307C19.2458 29.2811 19.1853 29.2515 19.1187 29.2112C19.0673 29.1777 19.0062 29.2546 18.985 29.3352C18.9765 29.3654 18.9495 29.3808 18.9205 29.3996C18.8904 29.4191 18.8526 29.4461 18.8316 29.4944C18.7769 29.6189 18.7572 29.6861 18.7379 29.7414C18.7327 29.757 18.7284 29.7708 18.7242 29.7854C18.7116 29.8308 18.6881 29.8863 18.6695 29.9397C18.646 30.0049 18.6232 30.0765 18.6197 30.136C18.5182 30.2379 18.4154 30.3523 18.318 30.4826C18.2665 30.5523 18.1361 30.5819 17.942 30.5823C17.7482 30.5812 17.5093 30.5457 17.275 30.468C17.0407 30.3904 16.8282 30.2729 16.6852 30.1301C16.6816 30.1265 16.6788 30.122 16.6754 30.1184C16.6213 30.2177 16.5696 30.3183 16.5201 30.4201C16.5478 30.4114 16.5767 30.4033 16.607 30.3977C16.8077 30.3589 17.0454 30.3911 17.275 30.468C17.5047 30.5448 17.7136 30.6569 17.8746 30.7571C18.035 30.8579 18.1336 30.9387 18.151 30.9992C18.1784 31.0978 18.2183 31.1844 18.2633 31.2541C18.2686 31.2576 18.274 31.2606 18.2789 31.2639C18.3152 31.2894 18.386 31.3048 18.4566 31.3117C18.4729 31.3134 18.4896 31.3145 18.5055 31.3157C18.6241 31.3231 18.5921 31.3753 18.5816 31.4153L18.5807 31.4172C18.578 31.4262 18.5796 31.4338 18.5816 31.4416C18.5874 31.4611 18.5901 31.4824 18.568 31.5754C18.5811 31.5881 18.5938 31.6013 18.606 31.6145C18.7404 31.7544 18.8594 31.9063 19.0631 31.9778C19.065 31.9767 19.067 31.9759 19.0689 31.9748C19.112 31.9511 19.1567 31.9142 19.2174 31.926C19.2946 31.9417 19.3666 31.9481 19.4293 31.9494C19.6871 31.8471 19.9671 31.5359 20.1227 31.1477C20.1731 31.0242 20.2126 30.8964 20.2418 30.76C20.2475 30.7332 20.2523 30.7057 20.2574 30.678C20.2742 30.5856 20.2826 30.5032 20.2848 30.4143C20.265 30.3489 20.2373 30.2916 20.2096 30.2395C20.1704 30.168 20.1313 30.1106 20.1148 30.0657C20.0759 29.9573 20.0893 29.8399 20.0875 29.7492C20.0873 29.7347 20.0863 29.7206 20.0855 29.7082C20.0444 29.6541 19.9994 29.6092 19.9527 29.5744C19.9583 29.5658 19.9644 29.5564 19.9703 29.5471C20.0422 29.4301 19.9916 29.3702 19.9088 29.3098C19.8722 29.2834 19.8282 29.2557 19.7769 29.2209C19.7445 29.1987 19.7436 29.1445 19.7398 29.0989C19.7388 29.0856 19.7381 29.0731 19.7359 29.0627C19.7283 29.0267 19.6972 29.0527 19.6656 29.0862C19.6232 29.1294 19.5831 29.1845 19.5494 29.1223ZM59.6607 8.93675C59.4669 9.15933 59.2793 9.3864 59.0992 9.61741C59.0839 9.6418 59.0688 9.66644 59.0533 9.69065C58.9367 9.87243 58.8615 10.0656 58.7926 10.258C58.7767 10.3021 58.7614 10.3468 58.7457 10.3908C58.6227 10.7246 58.2158 11.2119 58.0172 11.4934C58.0135 11.4985 58.0101 11.5039 58.0064 11.509C57.9586 11.5753 57.918 11.6402 57.8717 11.717C57.7648 11.9008 57.6073 12.1453 57.3238 12.6516C57.2653 12.8084 57.2137 12.9643 57.1685 13.1184C57.0519 13.5157 56.9869 13.9026 56.9791 14.2756C58.0697 15.079 58.6511 15.5074 59.6598 15.6721C59.6812 15.6735 59.7037 15.674 59.7252 15.675C60.015 15.6898 60.3591 15.667 60.6627 15.6311L61.2672 15.5071L61.7662 16.0881C61.9527 16.353 62.0118 16.4889 62.0846 16.6399C62.3345 17.1956 62.4545 17.5759 62.5514 17.8918C62.7718 18.4566 62.9682 19.0328 63.109 19.6614C63.1794 20.1884 63.4074 20.7169 63.1412 21.4944C63.3845 21.9265 63.6178 22.3564 63.8424 22.8049C63.9498 23.0219 64.0541 23.2398 64.1549 23.4709C64.1928 23.4784 64.231 23.4884 64.2701 23.4934C64.6352 23.5408 65.0408 23.4882 65.4225 23.3537C65.6387 23.2555 65.8328 23.1317 66.0035 23.0032C66.2432 22.8226 66.4374 22.6329 66.6021 22.4797C66.954 22.1569 67.3403 21.7552 67.6383 21.3967C67.6179 21.3802 67.5971 21.3644 67.5768 21.3479C67.5607 21.3209 67.544 21.2938 67.5279 21.2658C67.3296 20.9173 66.9809 20.6074 66.4537 20.0959C66.2246 19.8729 65.9618 19.6104 65.6676 19.2864C65.4787 19.0779 65.4187 18.9357 65.3697 18.8205C65.3554 18.7867 65.3419 18.7553 65.3268 18.7248C65.2747 18.6201 65.17 18.5546 65.0465 18.4758C64.8864 18.3736 64.6946 18.2487 64.5514 17.9895C64.1005 17.1648 63.7695 16.9139 63.5084 16.7199C63.4327 16.6631 63.3638 16.6115 63.3033 16.551C63.1067 16.3548 62.9196 16.0063 62.8082 15.7268C62.7186 15.5058 62.4281 15.1379 62.1949 14.8616C62.1065 14.7573 62.0144 14.5995 61.9088 14.4123C61.7993 14.2183 61.6759 13.9924 61.5269 13.758C61.1515 13.1643 60.9741 12.8306 60.8316 12.5637C60.7914 12.4874 60.7551 12.4156 60.7184 12.344C60.6021 12.1176 60.4707 11.8298 60.3473 11.5334C60.1989 11.179 60.0619 10.8118 59.9527 10.5324C59.8257 10.0069 59.7298 9.4734 59.6607 8.93675ZM18.9742 9.05491C18.8124 9.53716 18.6496 9.98065 18.4986 10.3381C17.988 11.5602 17.5765 12.3624 17.2262 13.0139C15.5574 16.4003 13.2334 19.5902 10.1451 21.8742C10.2115 21.9077 10.282 21.9422 10.3541 21.9807C10.8327 22.2385 11.4091 22.5467 12.0582 22.7971C12.7747 23.0798 13.6228 23.2039 14.3961 23.1672C14.6158 22.5743 14.8891 21.989 15.2555 21.4612C15.3366 21.3434 15.4217 21.2294 15.5074 21.1203C15.5024 21.0588 15.4996 21.0003 15.4898 20.9446C15.4695 20.5787 15.4939 20.2821 15.526 20.0041C15.593 19.4558 15.7017 18.9975 15.7887 18.6448C15.7931 18.6269 15.7969 18.6089 15.8014 18.591C15.8601 18.3591 15.9147 18.1424 15.982 17.8908C16.1404 17.3404 16.2581 16.7858 16.8424 15.3791L17.8883 12.8567L19.3336 15.2434C19.3591 15.3019 19.3875 15.3534 19.4283 15.4055C19.535 15.5052 19.7222 15.6025 20.0084 15.6555C20.2494 15.7029 20.5541 15.707 20.858 15.678C21.2982 13.5376 20.5286 11.0037 18.9742 9.05491ZM59.9176 17.4817L59.9225 17.4836L59.9185 17.4797L59.9176 17.4817Z" fill="#2B333B"/>
<path d="M156.198 41.9862C153.737 41.9862 151.584 41.5063 149.739 40.5467C147.893 39.5871 146.466 38.2215 145.457 36.4499C144.448 34.6537 143.944 32.5376 143.944 30.1016C143.944 27.395 144.448 25.0205 145.457 22.9782C146.491 20.936 147.93 19.3489 149.776 18.217C151.646 17.0606 153.823 16.4823 156.308 16.4823C158.941 16.4823 161.23 17.036 163.173 18.1432C165.117 19.2505 166.618 20.8006 167.676 22.7937C168.759 24.7622 169.3 27.0628 169.3 29.6956C169.3 32.23 168.759 34.4199 167.676 36.2653C166.594 38.0861 165.068 39.501 163.1 40.5098C161.156 41.494 158.855 41.9862 156.198 41.9862ZM156.714 34.6783C157.871 34.6783 158.88 34.4199 159.741 33.9032C160.627 33.3865 161.303 32.6606 161.771 31.7256C162.263 30.7906 162.509 29.7079 162.509 28.4776C162.509 27.2473 162.263 26.177 161.771 25.2666C161.303 24.3316 160.627 23.6057 159.741 23.089C158.88 22.5476 157.871 22.277 156.714 22.277C155.583 22.277 154.574 22.5476 153.688 23.089C152.827 23.6057 152.15 24.3316 151.658 25.2666C151.166 26.177 150.92 27.2473 150.92 28.4776C150.92 29.7079 151.166 30.7906 151.658 31.7256C152.15 32.6606 152.827 33.3865 153.688 33.9032C154.574 34.4199 155.583 34.6783 156.714 34.6783Z" fill="#2B333B"/>
<path d="M125.843 41.5063C125.105 41.5063 124.502 41.2849 124.035 40.842C123.592 40.3991 123.235 39.747 122.964 38.8858C122.792 38.3445 122.632 37.6309 122.485 36.7451C122.362 35.8593 122.263 34.8505 122.189 33.7186C122.116 32.5868 122.079 31.4057 122.079 30.1754C122.079 28.0347 122.152 25.9555 122.3 23.9379C122.448 21.8956 122.669 20.0994 122.964 18.5492C123.26 17.1713 123.678 16.1748 124.219 15.5596C124.785 14.9445 125.536 14.6369 126.471 14.6369C127.012 14.6369 127.467 14.7846 127.836 15.0798C128.23 15.3751 128.525 15.8795 128.722 16.5931C128.919 17.3066 129.017 18.2786 129.017 19.5088C129.017 20.4931 128.968 21.588 128.87 22.7937C128.771 23.9748 128.624 25.2789 128.427 26.706H128.574C130.272 23.5565 131.81 21.059 133.188 19.2136C134.566 17.3682 135.821 16.064 136.953 15.3013C138.109 14.5139 139.155 14.1202 140.09 14.1202C140.951 14.1202 141.616 14.4155 142.083 15.006C142.551 15.5719 142.784 16.2855 142.784 17.1467C142.784 18.8937 141.874 20.8129 140.053 22.9044C138.232 24.9959 135.292 27.395 131.232 30.1016L131.527 29.2896C135.046 30.9874 137.679 32.5745 139.426 34.0508C141.173 35.5272 142.046 36.9051 142.046 38.1846C142.046 39.0704 141.788 39.7839 141.271 40.3253C140.754 40.842 140.004 41.1003 139.02 41.1003C137.962 41.1003 136.879 40.8297 135.772 40.2884C134.664 39.747 133.496 38.8489 132.265 37.594C131.06 36.3145 129.768 34.5921 128.39 32.4268H128.242C128.365 33.165 128.451 33.9401 128.501 34.7521C128.575 35.5395 128.611 36.3145 128.611 37.0773C128.611 38.5783 128.378 39.6978 127.91 40.436C127.443 41.1496 126.754 41.5063 125.843 41.5063Z" fill="#2B333B"/>
<path d="M114.817 17.7003C115.629 17.7003 116.281 17.971 116.773 18.5123C117.265 19.029 117.622 19.9025 117.843 21.1328C117.991 22.0925 118.114 23.3473 118.212 24.8975C118.335 26.4231 118.397 28.0593 118.397 29.8063C118.397 31.3565 118.347 32.8451 118.249 34.2723C118.151 35.6748 118.003 36.9789 117.806 38.1846C117.56 39.7839 117.166 40.9158 116.625 41.5802C116.084 42.2199 115.37 42.5398 114.484 42.5398C113.648 42.5398 112.971 42.2814 112.454 41.7647C111.938 41.248 111.581 40.3622 111.384 39.1073C111.261 38.3199 111.15 37.2619 111.052 35.9332C110.978 34.6044 110.941 33.1773 110.941 31.6518C110.941 29.5357 111.015 27.5918 111.163 25.8202C111.31 24.024 111.495 22.5231 111.716 21.3174C111.987 20.0379 112.368 19.1152 112.86 18.5492C113.353 17.9833 114.005 17.7003 114.817 17.7003Z" fill="#2B333B"/>
<path d="M99.4805 15.7073C102.532 15.7073 104.783 16.4577 106.235 17.9587C107.686 19.4596 108.412 21.4281 108.412 23.864C108.412 25.5372 108.019 26.989 107.231 28.2193C106.468 29.4495 105.423 30.4092 104.094 31.0981C102.765 31.7625 101.264 32.0947 99.5912 32.0947C98.9022 32.0947 98.1518 32.0208 97.3398 31.8732C96.5524 31.7256 95.7404 31.4549 94.9038 31.0612L95.1622 30.36C95.359 30.9505 95.519 31.6764 95.642 32.5376C95.7896 33.3988 95.9003 34.2846 95.9742 35.195C96.0726 36.0808 96.1218 36.9051 96.1218 37.6678C96.1218 39.2426 95.8019 40.4483 95.1622 41.2849C94.547 42.0969 93.6366 42.5029 92.4309 42.5029C91.4467 42.5029 90.6716 42.2322 90.1057 41.6909C89.5644 41.1496 89.183 40.2637 88.9615 39.0335C88.7647 37.8032 88.6663 36.1669 88.6663 34.1246C88.6663 30.7044 88.8385 27.7887 89.183 25.3773C89.5275 22.9413 90.0934 21.0221 90.8808 19.6196C91.5451 18.4139 92.6032 17.4666 94.0549 16.7776C95.5067 16.064 97.3152 15.7073 99.4805 15.7073ZM98.6316 27.3704C100.01 27.3704 101.129 27.0136 101.99 26.3C102.876 25.5618 103.319 24.5284 103.319 23.1997C103.319 22.3385 103.036 21.6249 102.47 21.059C101.904 20.4931 100.994 20.2101 99.7388 20.2101C98.8284 20.2101 98.0164 20.4193 97.3029 20.8375C96.6139 21.2312 96.0849 21.7726 95.7158 22.4615C95.3467 23.1505 95.1622 23.9256 95.1622 24.7868C95.1622 25.648 95.4451 26.3 96.0111 26.7429C96.577 27.1612 97.4505 27.3704 98.6316 27.3704Z" fill="#2B333B"/>
</svg>
