<svg width="1000" height="1000" viewBox="0 0 1000 1000" fill="none" xmlns="http://www.w3.org/2000/svg">
<rect width="1000" height="1000" fill="url(#paint0_linear_202_56)"/>
<path d="M219.735 387.575C219.735 325.661 269.926 275.469 331.841 275.469H668.159C730.074 275.469 780.265 325.661 780.265 387.575V723.894C780.265 785.808 730.074 836 668.159 836H331.841C269.926 836 219.735 785.808 219.735 723.894V387.575Z" fill="white"/>
<path fill-rule="evenodd" clip-rule="evenodd" d="M668.159 303.496H331.841C285.405 303.496 247.761 341.139 247.761 387.575V723.894C247.761 770.33 285.405 807.973 331.841 807.973H668.159C714.595 807.973 752.239 770.33 752.239 723.894V387.575C752.239 341.139 714.595 303.496 668.159 303.496ZM331.841 275.469C269.926 275.469 219.735 325.661 219.735 387.575V723.894C219.735 785.808 269.926 836 331.841 836H668.159C730.074 836 780.265 785.808 780.265 723.894V387.575C780.265 325.661 730.074 275.469 668.159 275.469H331.841Z" fill="black"/>
<path d="M482.483 609.081C482.483 663.168 438.637 707.014 384.55 707.014C330.462 707.014 286.616 663.168 286.616 609.081C286.616 554.993 330.462 511.147 384.55 511.147C438.637 511.147 482.483 554.993 482.483 609.081Z" fill="black"/>
<path d="M713.384 609.081C713.384 663.168 669.538 707.014 615.45 707.014C561.363 707.014 517.517 663.168 517.517 609.081C517.517 554.993 561.363 511.147 615.45 511.147C669.538 511.147 713.384 554.993 713.384 609.081Z" fill="black"/>
<path d="M437.896 583.602C437.896 598.993 425.419 611.469 410.028 611.469C394.638 611.469 382.161 598.993 382.161 583.602C382.161 568.211 394.638 555.735 410.028 555.735C425.419 555.735 437.896 568.211 437.896 583.602Z" fill="white"/>
<path d="M617.839 583.602C617.839 598.993 605.362 611.469 589.972 611.469C574.581 611.469 562.104 598.993 562.104 583.602C562.104 568.211 574.581 555.735 589.972 555.735C605.362 555.735 617.839 568.211 617.839 583.602Z" fill="white"/>
<path d="M332.796 219.053C332.796 188.096 357.749 163 388.531 163C419.312 163 444.265 188.096 444.265 219.053V303.133H332.796V219.053Z" fill="black"/>
<path d="M555.735 219.053C555.735 188.096 581.044 163 612.265 163C643.487 163 668.796 188.096 668.796 219.053V303.133H555.735V219.053Z" fill="black"/>
<defs>
<linearGradient id="paint0_linear_202_56" x1="-4.63144e-06" y1="905.405" x2="1100.32" y2="732.311" gradientUnits="userSpaceOnUse">
<stop stop-color="#7DE8DF"/>
<stop offset="1" stop-color="#9F80FF"/>
</linearGradient>
</defs>
</svg>
